<svg width="68" height="37" viewBox="0 0 68 37" fill="none" xmlns="http://www.w3.org/2000/svg">
<g clip-path="url(#clip0_76_862)">
<rect x="0.130859" y="0.710938" width="67.0192" height="35.3712" rx="3.72329" fill="#0A75B1"/>
<path d="M26.8242 17.1777C29.0185 17.4197 30.1156 18.4442 30.1156 20.2513C30.1156 21.5743 29.6074 22.5585 28.5909 23.2038C27.5906 23.8492 26.2353 24.1719 24.5251 24.1719H19.467V11.5146C21.1934 11.1757 22.7503 11.0063 24.1379 11.0063C25.7997 11.0063 27.1066 11.3048 28.0585 11.9018C29.0104 12.4987 29.4864 13.3619 29.4864 14.4913C29.4864 15.2174 29.2605 15.8063 28.8087 16.258C28.357 16.7098 27.6955 17.0163 26.8242 17.1777ZM24.1137 13.1119C23.6781 13.1119 23.1618 13.1522 22.5648 13.2329V16.4758H24.4041C25.7432 16.4758 26.4128 15.9031 26.4128 14.7575C26.4128 13.6604 25.6464 13.1119 24.1137 13.1119ZM24.4525 22.018C26.0821 22.018 26.8968 21.3645 26.8968 20.0576C26.8968 19.4607 26.7113 19.0251 26.3402 18.7508C25.9691 18.4604 25.356 18.3151 24.5009 18.3151H22.5648V22.018H24.4525ZM37.1236 15.411C39.1243 15.411 40.5844 15.7901 41.5041 16.5484C42.4237 17.2906 42.8835 18.3716 42.8835 19.7914C42.8835 21.2274 42.3914 22.3164 41.4073 23.0586C40.4231 23.8008 39.1646 24.1719 37.6318 24.1719H33.0094V11.3694H36.1072V15.411H37.1236ZM44.3114 11.3694H47.4092V24.1719H44.3114V11.3694ZM37.3172 22.018C38.8823 22.018 39.6648 21.2596 39.6648 19.743C39.6648 18.9847 39.4712 18.4281 39.0839 18.0731C38.6967 17.702 38.0352 17.5165 37.0994 17.5165H36.1072V22.018H37.3172Z" fill="#F8F8F8"/>
</g>
<defs>
<clipPath id="clip0_76_862">
<rect width="67.0192" height="35.3712" fill="white" transform="translate(0.130859 0.710938)"/>
</clipPath>
</defs>
</svg>
