<svg width="26" height="27" viewBox="0 0 26 27" fill="none" xmlns="http://www.w3.org/2000/svg">
<path fill-rule="evenodd" clip-rule="evenodd" d="M20.1646 1.17919L24.6279 5.64253C25.8757 6.83128 25.9267 8.80541 24.7419 10.057L10.0813 24.7176C9.55037 25.2441 8.85441 25.572 8.11031 25.6461L1.31757 26.2651H1.17097C0.737984 26.2676 0.321822 26.0976 0.0144074 25.7927C-0.329242 25.4503 -0.502418 24.9726 -0.45799 24.4895L0.242461 17.6968C0.316586 16.9527 0.644431 16.2567 1.17097 15.7258L15.8316 1.06516C17.0953 -0.00253481 18.9587 0.046501 20.1646 1.17919ZM14.7207 6.71787L19.0863 11.0835L22.3442 7.90701L17.8972 3.45996L14.7207 6.71787Z" fill="#123044"/>
</svg>
