<svg width="67" height="67" viewBox="0 0 67 67" fill="none" xmlns="http://www.w3.org/2000/svg">
<g filter="url(#filter0_d_35_871)">
<circle cx="26.5" cy="26.5" r="26.5" transform="matrix(0 1 1 0 7 6)" fill="#F9F9F9"/>
<path d="M31.954 46.1139C32.4422 46.602 33.2336 46.602 33.7218 46.1139L41.6767 38.1589C42.1649 37.6708 42.1649 36.8793 41.6767 36.3911C41.1886 35.903 40.3971 35.903 39.909 36.3911L32.8379 43.4622L25.7668 36.3911C25.2787 35.903 24.4872 35.903 23.9991 36.3911C23.5109 36.8793 23.5109 37.6708 23.9991 38.1589L31.954 46.1139ZM31.5879 19.7705L31.5879 45.23L34.0879 45.23L34.0879 19.7705L31.5879 19.7705Z" fill="#575555"/>
</g>
<defs>
<filter id="filter0_d_35_871" x="0" y="0" width="67" height="67" filterUnits="userSpaceOnUse" color-interpolation-filters="sRGB">
<feFlood flood-opacity="0" result="BackgroundImageFix"/>
<feColorMatrix in="SourceAlpha" type="matrix" values="0 0 0 0 0 0 0 0 0 0 0 0 0 0 0 0 0 0 127 0" result="hardAlpha"/>
<feOffset dy="1"/>
<feGaussianBlur stdDeviation="3.5"/>
<feComposite in2="hardAlpha" operator="out"/>
<feColorMatrix type="matrix" values="0 0 0 0 0 0 0 0 0 0 0 0 0 0 0 0 0 0 0.09 0"/>
<feBlend mode="normal" in2="BackgroundImageFix" result="effect1_dropShadow_35_871"/>
<feBlend mode="normal" in="SourceGraphic" in2="effect1_dropShadow_35_871" result="shape"/>
</filter>
</defs>
</svg>
