<svg width="25" height="24" viewBox="0 0 25 24" fill="none" xmlns="http://www.w3.org/2000/svg">
<path fill-rule="evenodd" clip-rule="evenodd" d="M23.4823 4.79071C23.4823 5.10836 23.3561 5.413 23.1315 5.63761C22.9069 5.86222 22.6023 5.9884 22.2846 5.9884H3.12152C2.80387 5.9884 2.49924 5.86222 2.27462 5.63761C2.05001 5.413 1.92383 5.10836 1.92383 4.79071C1.92383 4.47306 2.05001 4.16842 2.27462 3.94381C2.49924 3.7192 2.80387 3.59302 3.12152 3.59302H22.2846C22.6023 3.59302 22.9069 3.7192 23.1315 3.94381C23.3561 4.16842 23.4823 4.47306 23.4823 4.79071ZM23.4823 11.9769C23.4823 12.2945 23.3561 12.5992 23.1315 12.8238C22.9069 13.0484 22.6023 13.1746 22.2846 13.1746H3.12152C2.80387 13.1746 2.49924 13.0484 2.27462 12.8238C2.05001 12.5992 1.92383 12.2945 1.92383 11.9769C1.92383 11.6592 2.05001 11.3546 2.27462 11.13C2.49924 10.9054 2.80387 10.7792 3.12152 10.7792H22.2846C22.6023 10.7792 22.9069 10.9054 23.1315 11.13C23.3561 11.3546 23.4823 11.6592 23.4823 11.9769ZM22.2846 20.3607C22.6023 20.3607 22.9069 20.2345 23.1315 20.0099C23.3561 19.7853 23.4823 19.4807 23.4823 19.163C23.4823 18.8454 23.3561 18.5407 23.1315 18.3161C22.9069 18.0915 22.6023 17.9653 22.2846 17.9653H3.12152C2.80387 17.9653 2.49924 18.0915 2.27462 18.3161C2.05001 18.5407 1.92383 18.8454 1.92383 19.163C1.92383 19.4807 2.05001 19.7853 2.27462 20.0099C2.49924 20.2345 2.80387 20.3607 3.12152 20.3607H22.2846Z" fill="#767676"/>
</svg>
