<svg width="311" height="62" viewBox="0 0 311 62" fill="none" xmlns="http://www.w3.org/2000/svg">
<g filter="url(#filter0_d_35_1038)">
<path d="M30.2255 6.93866C30.6124 5.74781 32.2972 5.74781 32.6841 6.93865L37.7513 22.5339C37.9243 23.0665 38.4206 23.4271 38.9806 23.4271H55.3784C56.6306 23.4271 57.1512 25.0293 56.1382 25.7653L42.8721 35.4037C42.419 35.7329 42.2295 36.3163 42.4025 36.8489L47.4697 52.4441C47.8566 53.635 46.4937 54.6252 45.4807 53.8892L32.2145 44.2508C31.7615 43.9217 31.1481 43.9217 30.695 44.2508L17.4289 53.8892C16.4159 54.6252 15.0529 53.635 15.4399 52.4441L20.5071 36.8489C20.6801 36.3163 20.4906 35.7329 20.0375 35.4037L6.77141 25.7653C5.75842 25.0293 6.27902 23.4271 7.53116 23.4271H23.929C24.489 23.4271 24.9852 23.0665 25.1583 22.5339L30.2255 6.93866Z" fill="#F8F8F8"/>
<path d="M30.6353 7.0718C30.8932 6.2779 32.0164 6.2779 32.2743 7.0718L37.3415 22.6671C37.5723 23.3772 38.234 23.8579 38.9806 23.8579H55.3784C56.2132 23.8579 56.5603 24.9261 55.8849 25.4168L42.6188 35.0552C42.0148 35.494 41.762 36.2719 41.9927 36.982L47.0599 52.5773C47.3179 53.3712 46.4093 54.0313 45.7339 53.5407L32.4678 43.9023C31.8638 43.4634 31.0458 43.4634 30.4418 43.9023L17.1757 53.5407C16.5003 54.0313 15.5917 53.3712 15.8496 52.5773L20.9169 36.982C21.1476 36.2719 20.8948 35.494 20.2908 35.0552L7.02466 25.4168C6.34933 24.9261 6.6964 23.8579 7.53116 23.8579H23.929C24.6756 23.8579 25.3373 23.3772 25.5681 22.6671L30.6353 7.0718Z" stroke="#EFC351" stroke-width="0.861705"/>
</g>
<g filter="url(#filter1_d_35_1038)">
<path d="M92.247 6.93866C92.6339 5.74781 94.3186 5.74781 94.7056 6.93865L99.7728 22.5339C99.9458 23.0665 100.442 23.4271 101.002 23.4271H117.4C118.652 23.4271 119.173 25.0293 118.16 25.7653L104.894 35.4037C104.441 35.7329 104.251 36.3163 104.424 36.8489L109.491 52.4441C109.878 53.635 108.515 54.6252 107.502 53.8892L94.236 44.2508C93.783 43.9217 93.1696 43.9217 92.7165 44.2508L79.4504 53.8892C78.4374 54.6252 77.0744 53.635 77.4614 52.4441L82.5286 36.8489C82.7016 36.3163 82.512 35.7329 82.059 35.4037L68.7929 25.7653C67.7799 25.0293 68.3005 23.4271 69.5526 23.4271H85.9505C86.5104 23.4271 87.0067 23.0665 87.1798 22.5339L92.247 6.93866Z" fill="#F8F8F8"/>
<path d="M92.6567 7.0718C92.9147 6.2779 94.0379 6.2779 94.2958 7.0718L99.363 22.6671C99.5937 23.3772 100.255 23.8579 101.002 23.8579H117.4C118.235 23.8579 118.582 24.9261 117.906 25.4168L104.64 35.0552C104.036 35.494 103.784 36.2719 104.014 36.982L109.081 52.5773C109.339 53.3712 108.431 54.0313 107.755 53.5407L94.4893 43.9023C93.8852 43.4634 93.0673 43.4634 92.4633 43.9023L79.1972 53.5407C78.5218 54.0313 77.6132 53.3712 77.8711 52.5773L82.9383 36.982C83.1691 36.2719 82.9163 35.494 82.3123 35.0552L69.0461 25.4168C68.3708 24.9261 68.7179 23.8579 69.5526 23.8579H85.9505C86.6971 23.8579 87.3588 23.3772 87.5895 22.6671L92.6567 7.0718Z" stroke="#EFC351" stroke-width="0.861705"/>
</g>
<g filter="url(#filter2_d_35_1038)">
<path d="M154.27 6.93866C154.657 5.74781 156.342 5.74781 156.729 6.93865L161.796 22.5339C161.969 23.0665 162.466 23.4271 163.026 23.4271H179.423C180.675 23.4271 181.196 25.0293 180.183 25.7653L166.917 35.4037C166.464 35.7329 166.274 36.3163 166.447 36.8489L171.515 52.4441C171.902 53.635 170.539 54.6252 169.526 53.8892L156.259 44.2508C155.806 43.9217 155.193 43.9217 154.74 44.2508L141.474 53.8892C140.461 54.6252 139.098 53.635 139.485 52.4441L144.552 36.8489C144.725 36.3163 144.535 35.7329 144.082 35.4037L130.816 25.7653C129.803 25.0293 130.324 23.4271 131.576 23.4271H147.974C148.534 23.4271 149.03 23.0665 149.203 22.5339L154.27 6.93866Z" fill="#F8F8F8"/>
<path d="M154.68 7.0718C154.938 6.2779 156.061 6.2779 156.319 7.0718L161.386 22.6671C161.617 23.3772 162.279 23.8579 163.026 23.8579H179.423C180.258 23.8579 180.605 24.9261 179.93 25.4168L166.664 35.0552C166.06 35.494 165.807 36.2719 166.038 36.982L171.105 52.5773C171.363 53.3712 170.454 54.0313 169.779 53.5407L156.513 43.9023C155.909 43.4634 155.091 43.4634 154.487 43.9023L141.221 53.5407C140.545 54.0313 139.637 53.3712 139.895 52.5773L144.962 36.982C145.192 36.2719 144.94 35.494 144.336 35.0552L131.07 25.4168C130.394 24.9261 130.741 23.8579 131.576 23.8579H147.974C148.721 23.8579 149.382 23.3772 149.613 22.6671L154.68 7.0718Z" stroke="#EFC351" stroke-width="0.861705"/>
</g>
<g filter="url(#filter3_d_35_1038)">
<path d="M216.294 6.93866C216.681 5.74781 218.366 5.74781 218.752 6.93865L223.82 22.5339C223.993 23.0665 224.489 23.4271 225.049 23.4271H241.447C242.699 23.4271 243.22 25.0293 242.207 25.7653L228.94 35.4037C228.487 35.7329 228.298 36.3163 228.471 36.8489L233.538 52.4441C233.925 53.635 232.562 54.6252 231.549 53.8892L218.283 44.2508C217.83 43.9217 217.216 43.9217 216.763 44.2508L203.497 53.8892C202.484 54.6252 201.121 53.635 201.508 52.4441L206.575 36.8489C206.748 36.3163 206.559 35.7329 206.106 35.4037L192.84 25.7653C191.827 25.0293 192.347 23.4271 193.6 23.4271H209.997C210.557 23.4271 211.054 23.0665 211.227 22.5339L216.294 6.93866Z" fill="#F8F8F8"/>
<path d="M216.704 7.0718C216.962 6.2779 218.085 6.2779 218.343 7.0718L223.41 22.6671C223.641 23.3772 224.302 23.8579 225.049 23.8579H241.447C242.282 23.8579 242.629 24.9261 241.953 25.4168L228.687 35.0552C228.083 35.494 227.83 36.2719 228.061 36.982L233.128 52.5773C233.386 53.3712 232.478 54.0313 231.802 53.5407L218.536 43.9023C217.932 43.4634 217.114 43.4634 216.51 43.9023L203.244 53.5407C202.569 54.0313 201.66 53.3712 201.918 52.5773L206.985 36.982C207.216 36.2719 206.963 35.494 206.359 35.0552L193.093 25.4168C192.418 24.9261 192.765 23.8579 193.6 23.8579H209.997C210.744 23.8579 211.406 23.3772 211.636 22.6671L216.704 7.0718Z" stroke="#EFC351" stroke-width="0.861705"/>
</g>
<g filter="url(#filter4_d_35_1038)">
<path d="M278.317 6.93866C278.704 5.74781 280.389 5.74781 280.776 6.93865L285.843 22.5339C286.016 23.0665 286.512 23.4271 287.072 23.4271H303.47C304.722 23.4271 305.243 25.0293 304.23 25.7653L290.964 35.4037C290.511 35.7329 290.321 36.3163 290.494 36.8489L295.562 52.4441C295.948 53.635 294.585 54.6252 293.572 53.8892L280.306 44.2508C279.853 43.9217 279.24 43.9217 278.787 44.2508L265.521 53.8892C264.508 54.6252 263.145 53.635 263.532 52.4441L268.599 36.8489C268.772 36.3163 268.582 35.7329 268.129 35.4037L254.863 25.7653C253.85 25.0293 254.371 23.4271 255.623 23.4271H272.021C272.581 23.4271 273.077 23.0665 273.25 22.5339L278.317 6.93866Z" fill="#F8F8F8"/>
<path d="M278.727 7.0718C278.985 6.2779 280.108 6.2779 280.366 7.0718L285.433 22.6671C285.664 23.3772 286.326 23.8579 287.072 23.8579H303.47C304.305 23.8579 304.652 24.9261 303.977 25.4168L290.711 35.0552C290.107 35.494 289.854 36.2719 290.085 36.982L295.152 52.5773C295.41 53.3712 294.501 54.0313 293.826 53.5407L280.56 43.9023C279.956 43.4634 279.138 43.4634 278.534 43.9023L265.267 53.5407C264.592 54.0313 263.683 53.3712 263.941 52.5773L269.009 36.982C269.239 36.2719 268.987 35.494 268.383 35.0552L255.116 25.4168C254.441 24.9261 254.788 23.8579 255.623 23.8579H272.021C272.767 23.8579 273.429 23.3772 273.66 22.6671L278.727 7.0718Z" stroke="#EFC351" stroke-width="0.861705"/>
</g>
<defs>
<filter id="filter0_d_35_1038" x="0.0184507" y="0.715801" width="62.8733" height="60.5324" filterUnits="userSpaceOnUse" color-interpolation-filters="sRGB">
<feFlood flood-opacity="0" result="BackgroundImageFix"/>
<feColorMatrix in="SourceAlpha" type="matrix" values="0 0 0 0 0 0 0 0 0 0 0 0 0 0 0 0 0 0 127 0" result="hardAlpha"/>
<feOffset dy="0.888268"/>
<feGaussianBlur stdDeviation="3.10894"/>
<feComposite in2="hardAlpha" operator="out"/>
<feColorMatrix type="matrix" values="0 0 0 0 0 0 0 0 0 0 0 0 0 0 0 0 0 0 0.09 0"/>
<feBlend mode="normal" in2="BackgroundImageFix" result="effect1_dropShadow_35_1038"/>
<feBlend mode="normal" in="SourceGraphic" in2="effect1_dropShadow_35_1038" result="shape"/>
</filter>
<filter id="filter1_d_35_1038" x="62.0399" y="0.715801" width="62.8733" height="60.5324" filterUnits="userSpaceOnUse" color-interpolation-filters="sRGB">
<feFlood flood-opacity="0" result="BackgroundImageFix"/>
<feColorMatrix in="SourceAlpha" type="matrix" values="0 0 0 0 0 0 0 0 0 0 0 0 0 0 0 0 0 0 127 0" result="hardAlpha"/>
<feOffset dy="0.888268"/>
<feGaussianBlur stdDeviation="3.10894"/>
<feComposite in2="hardAlpha" operator="out"/>
<feColorMatrix type="matrix" values="0 0 0 0 0 0 0 0 0 0 0 0 0 0 0 0 0 0 0.09 0"/>
<feBlend mode="normal" in2="BackgroundImageFix" result="effect1_dropShadow_35_1038"/>
<feBlend mode="normal" in="SourceGraphic" in2="effect1_dropShadow_35_1038" result="shape"/>
</filter>
<filter id="filter2_d_35_1038" x="124.063" y="0.715801" width="62.8733" height="60.5324" filterUnits="userSpaceOnUse" color-interpolation-filters="sRGB">
<feFlood flood-opacity="0" result="BackgroundImageFix"/>
<feColorMatrix in="SourceAlpha" type="matrix" values="0 0 0 0 0 0 0 0 0 0 0 0 0 0 0 0 0 0 127 0" result="hardAlpha"/>
<feOffset dy="0.888268"/>
<feGaussianBlur stdDeviation="3.10894"/>
<feComposite in2="hardAlpha" operator="out"/>
<feColorMatrix type="matrix" values="0 0 0 0 0 0 0 0 0 0 0 0 0 0 0 0 0 0 0.09 0"/>
<feBlend mode="normal" in2="BackgroundImageFix" result="effect1_dropShadow_35_1038"/>
<feBlend mode="normal" in="SourceGraphic" in2="effect1_dropShadow_35_1038" result="shape"/>
</filter>
<filter id="filter3_d_35_1038" x="186.087" y="0.715801" width="62.8733" height="60.5324" filterUnits="userSpaceOnUse" color-interpolation-filters="sRGB">
<feFlood flood-opacity="0" result="BackgroundImageFix"/>
<feColorMatrix in="SourceAlpha" type="matrix" values="0 0 0 0 0 0 0 0 0 0 0 0 0 0 0 0 0 0 127 0" result="hardAlpha"/>
<feOffset dy="0.888268"/>
<feGaussianBlur stdDeviation="3.10894"/>
<feComposite in2="hardAlpha" operator="out"/>
<feColorMatrix type="matrix" values="0 0 0 0 0 0 0 0 0 0 0 0 0 0 0 0 0 0 0.09 0"/>
<feBlend mode="normal" in2="BackgroundImageFix" result="effect1_dropShadow_35_1038"/>
<feBlend mode="normal" in="SourceGraphic" in2="effect1_dropShadow_35_1038" result="shape"/>
</filter>
<filter id="filter4_d_35_1038" x="248.11" y="0.715801" width="62.8733" height="60.5324" filterUnits="userSpaceOnUse" color-interpolation-filters="sRGB">
<feFlood flood-opacity="0" result="BackgroundImageFix"/>
<feColorMatrix in="SourceAlpha" type="matrix" values="0 0 0 0 0 0 0 0 0 0 0 0 0 0 0 0 0 0 127 0" result="hardAlpha"/>
<feOffset dy="0.888268"/>
<feGaussianBlur stdDeviation="3.10894"/>
<feComposite in2="hardAlpha" operator="out"/>
<feColorMatrix type="matrix" values="0 0 0 0 0 0 0 0 0 0 0 0 0 0 0 0 0 0 0.09 0"/>
<feBlend mode="normal" in2="BackgroundImageFix" result="effect1_dropShadow_35_1038"/>
<feBlend mode="normal" in="SourceGraphic" in2="effect1_dropShadow_35_1038" result="shape"/>
</filter>
</defs>
</svg>
