<svg width="36" height="36" viewBox="0 0 36 36" fill="none" xmlns="http://www.w3.org/2000/svg">
<path d="M28.5 4.87511H10.125C9.16069 4.8468 8.2245 5.20194 7.52158 5.86269C6.81865 6.52344 6.40635 7.43589 6.375 8.40011V27.0001C6.41413 28.1314 6.90041 29.201 7.72713 29.9744C8.55387 30.7477 9.65356 31.1615 10.785 31.1251H28.5C28.7971 31.1212 29.0811 31.0015 29.2912 30.7913C29.5014 30.5812 29.6211 30.2972 29.625 30.0001V6.00011C29.6211 5.70294 29.5014 5.41905 29.2912 5.2089C29.0811 4.99877 28.7971 4.87899 28.5 4.87511ZM27.375 28.8751H10.785C10.2501 28.9123 9.72226 28.7357 9.31734 28.3841C8.91241 28.0327 8.66343 27.535 8.625 27.0001C8.66343 26.4653 8.91241 25.9675 9.31734 25.616C9.72226 25.2646 10.2501 25.088 10.785 25.1251H27.375V28.8751ZM27.375 22.8751H10.785C10.0298 22.876 9.28702 23.0668 8.625 23.4301V8.40011C8.65935 8.03394 8.83542 7.69568 9.11565 7.45749C9.39588 7.21929 9.75807 7.10003 10.125 7.12511H27.375V22.8751Z" fill="#161515" fill-opacity="0.78"/>
<path d="M13.125 13.125H22.875C23.1734 13.125 23.4595 13.0065 23.6705 12.7955C23.8815 12.5845 24 12.2984 24 12C24 11.7016 23.8815 11.4155 23.6705 11.2045C23.4595 10.9935 23.1734 10.875 22.875 10.875H13.125C12.8266 10.875 12.5405 10.9935 12.3295 11.2045C12.1185 11.4155 12 11.7016 12 12C12 12.2984 12.1185 12.5845 12.3295 12.7955C12.5405 13.0065 12.8266 13.125 13.125 13.125Z" fill="#161515" fill-opacity="0.78"/>
<path d="M13.125 18.375H22.875C23.1734 18.375 23.4595 18.2565 23.6705 18.0455C23.8815 17.8346 24 17.5483 24 17.25C24 16.9517 23.8815 16.6654 23.6705 16.4545C23.4595 16.2435 23.1734 16.125 22.875 16.125H13.125C12.8266 16.125 12.5405 16.2435 12.3295 16.4545C12.1185 16.6654 12 16.9517 12 17.25C12 17.5483 12.1185 17.8346 12.3295 18.0455C12.5405 18.2565 12.8266 18.375 13.125 18.375Z" fill="#161515" fill-opacity="0.78"/>
</svg>
