<svg width="32" height="33" viewBox="0 0 32 33" fill="none" xmlns="http://www.w3.org/2000/svg">
<path d="M31.4961 4.18688L26.8461 1.0869C26.7008 0.990025 26.5165 0.972954 26.3559 1.04169C26.3195 1.05737 22.6705 2.62723 19.07 4.68462C17.5399 5.55922 16.6913 6.53032 16.2263 7.39477C15.7613 6.53026 14.9127 5.55923 13.3826 4.68479C9.78201 2.62758 6.13269 1.05751 6.09667 1.04187C5.93613 0.97313 5.75184 0.990201 5.60653 1.08708L0.956524 4.18706C0.813056 4.28278 0.726562 4.44401 0.726562 4.61677V23.2167C0.726562 23.4252 0.852039 23.6134 1.0444 23.6937L6.92656 26.1444V31.4833C6.92656 31.6789 7.03704 31.8579 7.2121 31.9455C7.38717 32.033 7.5966 32.014 7.75322 31.8966L9.50989 30.5792L11.2666 31.8966C11.4232 32.014 11.6326 32.033 11.8077 31.9455C11.9827 31.8579 12.0932 31.6789 12.0932 31.4833V28.2973L13.4402 28.8585L13.4444 28.8603C13.5073 28.8866 13.5749 28.9 13.6432 28.9H18.8099C18.8781 28.9 18.9457 28.8866 19.0087 28.8603L19.0128 28.8585L31.4087 23.6937C31.6011 23.6134 31.7266 23.4252 31.7266 23.2167V4.61676C31.7266 4.444 31.6398 4.28284 31.4961 4.18688ZM19.5826 5.58188C22.5857 3.86584 25.6244 2.49341 26.5077 2.10316L27.678 2.88324L23.7625 4.66298C23.6377 4.71972 23.5404 4.82375 23.4922 4.95199C23.4442 5.08023 23.449 5.22254 23.5058 5.34733C23.6239 5.60704 23.9302 5.72191 24.1899 5.60382L28.6907 3.55836L30.1198 4.51121L18.7059 9.26682H18.257C18.8143 8.6692 22.0363 6.68281 24.2382 5.58188C24.3618 5.52145 24.4561 5.41373 24.5002 5.28341C24.5442 5.15286 24.5343 5.01009 24.4727 4.88692C24.4112 4.76375 24.303 4.67033 24.1722 4.62721C24.0414 4.5843 23.8986 4.59514 23.7759 4.65788C20.5578 6.26692 17.327 8.64887 16.946 9.2668H16.7645C16.761 9.19115 16.7548 9.10972 16.7451 9.023C16.8653 8.21984 17.4101 6.82323 19.5826 5.58188ZM18.2928 10.3001V12.3668H14.1594V10.3001H18.2928ZM18.2928 15.4668H14.1594V13.4001H18.2928V15.4668ZM14.1594 16.5001H18.2928V21.6667H14.1594V16.5001ZM14.1594 22.7001H18.2928V24.7667H14.1594V22.7001ZM5.94473 2.10316C6.82861 2.49343 9.86703 3.86584 12.8698 5.58188C15.0424 6.82323 15.587 8.21964 15.7067 9.02274C15.6972 9.10947 15.691 9.19089 15.6873 9.26654H15.5062C15.1252 8.64861 11.9509 6.29383 8.73282 4.68479C8.61012 4.62206 8.46757 4.61121 8.33656 4.65412C8.20578 4.69725 8.0976 4.79066 8.03602 4.91383C7.97443 5.037 7.96452 5.17977 8.00857 5.31032C8.05263 5.44064 8.14697 5.54835 8.2706 5.60879C10.4729 6.7099 13.6379 8.66871 14.1952 9.26657H13.7463L2.33301 4.51095L3.7619 3.5581L8.26246 5.60356C8.52217 5.72166 8.82848 5.60679 8.94658 5.34707C9.06468 5.08736 8.94981 4.78105 8.69009 4.66295L4.7747 2.8832L5.94473 2.10316ZM1.75973 5.39157L13.1264 10.1276V27.6079L1.75973 22.8719V5.39157ZM11.0597 30.4501L9.81973 29.5201C9.63613 29.3824 9.38333 29.3824 9.19973 29.5201L7.95973 30.4501V26.5751L11.0597 27.8668V30.4501ZM14.1597 27.8668V25.8001H18.2931V27.8668H14.1597ZM30.6931 22.8724L19.3264 27.6084V10.128L30.6931 5.39204V22.8724Z" fill="#767676" stroke="#767676" stroke-width="0.5"/>
<path d="M21.6225 16.4131C21.7665 16.5089 21.9485 16.5266 22.1081 16.4602L28.3081 13.8769C28.5004 13.7966 28.6259 13.6084 28.6259 13.3999V10.2999C28.6259 10.1271 28.5397 9.96591 28.396 9.86996C28.252 9.77424 28.07 9.75648 27.9104 9.82291L21.7104 12.4062C21.5181 12.4865 21.3926 12.6747 21.3926 12.8832V15.9832C21.3926 16.156 21.4788 16.3172 21.6225 16.4131ZM22.4259 13.2276L27.5926 11.0749V13.0555L22.4259 15.2082V13.2276Z" fill="#B32B37" stroke="#B32B37" stroke-width="0.5"/>
</svg>
