<svg width="32" height="31" viewBox="0 0 32 31" fill="none" xmlns="http://www.w3.org/2000/svg">
<path d="M8.88086 16.6933C8.92022 16.6937 8.95926 16.6863 8.9957 16.6714C9.03215 16.6566 9.06525 16.6346 9.09309 16.6068C9.12092 16.5789 9.14291 16.5458 9.15778 16.5094C9.17264 16.4729 9.18008 16.4339 9.17966 16.3945V13.9687C9.18009 13.9294 9.17265 13.8903 9.15779 13.8539C9.14292 13.8174 9.12093 13.7843 9.0931 13.7565C9.06527 13.7287 9.03216 13.7067 8.99571 13.6918C8.95927 13.6769 8.92022 13.6695 8.88086 13.6699H6.45506C6.4157 13.6695 6.37666 13.6769 6.34021 13.6918C6.30377 13.7067 6.27066 13.7287 6.24283 13.7565C6.215 13.7843 6.193 13.8174 6.17814 13.8539C6.16328 13.8903 6.15584 13.9294 6.15627 13.9687V16.3945C6.1584 16.4743 6.19151 16.5501 6.24859 16.6059C6.30566 16.6617 6.3822 16.6931 6.46201 16.6934L8.88086 16.6933Z" fill="#B32B37"/>
<path d="M14.5859 16.6863C14.6253 16.6867 14.6643 16.6792 14.7008 16.6644C14.7372 16.6495 14.7703 16.6275 14.7981 16.5997C14.826 16.5719 14.848 16.5388 14.8628 16.5023C14.8777 16.4659 14.8851 16.4268 14.8847 16.3875V13.9617C14.8851 13.9223 14.8777 13.8832 14.8628 13.8468C14.848 13.8104 14.826 13.7772 14.7981 13.7494C14.7703 13.7216 14.7372 13.6996 14.7008 13.6847C14.6643 13.6699 14.6253 13.6624 14.5859 13.6629H12.1601C12.1208 13.6624 12.0817 13.6699 12.0453 13.6847C12.0088 13.6996 11.9757 13.7216 11.9479 13.7494C11.9201 13.7773 11.8981 13.8104 11.8832 13.8468C11.8684 13.8832 11.8609 13.9223 11.8613 13.9617V16.3875C11.8631 16.4662 11.8951 16.5412 11.9508 16.5969C12.0064 16.6525 12.0814 16.6846 12.1601 16.6863L14.5859 16.6863Z" fill="#B32B37"/>
<path d="M20.2929 16.6863C20.3323 16.6867 20.3713 16.6792 20.4078 16.6644C20.4442 16.6495 20.4773 16.6275 20.5052 16.5997C20.533 16.5719 20.555 16.5388 20.5699 16.5023C20.5847 16.4659 20.5922 16.4268 20.5917 16.3875V13.9617C20.5922 13.9223 20.5847 13.8832 20.5699 13.8468C20.555 13.8104 20.533 13.7772 20.5052 13.7494C20.4773 13.7216 20.4442 13.6996 20.4078 13.6847C20.3713 13.6699 20.3323 13.6624 20.2929 13.6629H17.8672C17.8278 13.6624 17.7888 13.6699 17.7523 13.6847C17.7159 13.6996 17.6828 13.7216 17.6549 13.7494C17.6271 13.7773 17.6051 13.8104 17.5902 13.8468C17.5754 13.8832 17.5679 13.9223 17.5684 13.9617V16.3875C17.5701 16.4662 17.6021 16.5412 17.6578 16.5968C17.7135 16.6525 17.7885 16.6845 17.8672 16.6863H20.2929Z" fill="#B32B37"/>
<path d="M14.5859 21.6303C14.6253 21.6308 14.6643 21.6233 14.7008 21.6085C14.7372 21.5936 14.7703 21.5716 14.7981 21.5438C14.826 21.5159 14.848 21.4828 14.8628 21.4464C14.8777 21.41 14.8851 21.3709 14.8847 21.3315V18.9057C14.8851 18.8664 14.8777 18.8273 14.8628 18.7909C14.848 18.7545 14.826 18.7213 14.7981 18.6935C14.7703 18.6657 14.7372 18.6437 14.7008 18.6288C14.6643 18.614 14.6253 18.6065 14.5859 18.607H12.1601C12.1208 18.6065 12.0817 18.614 12.0453 18.6288C12.0088 18.6437 11.9757 18.6657 11.9479 18.6935C11.9201 18.7213 11.8981 18.7545 11.8832 18.7909C11.8684 18.8273 11.8609 18.8664 11.8613 18.9057V21.3315C11.8631 21.4103 11.8951 21.4853 11.9508 21.5409C12.0064 21.5966 12.0814 21.6286 12.1601 21.6303H14.5859Z" fill="#B32B37"/>
<path d="M20.2929 21.6303C20.3323 21.6308 20.3713 21.6233 20.4078 21.6085C20.4442 21.5936 20.4773 21.5716 20.5052 21.5438C20.533 21.5159 20.555 21.4828 20.5699 21.4464C20.5847 21.41 20.5922 21.3709 20.5917 21.3315V18.9057C20.5922 18.8664 20.5847 18.8273 20.5699 18.7909C20.555 18.7545 20.533 18.7213 20.5052 18.6935C20.4773 18.6657 20.4442 18.6437 20.4078 18.6288C20.3713 18.614 20.3323 18.6065 20.2929 18.607H17.8672C17.8278 18.6065 17.7888 18.614 17.7523 18.6288C17.7159 18.6437 17.6828 18.6657 17.6549 18.6935C17.6271 18.7213 17.6051 18.7545 17.5902 18.7909C17.5754 18.8273 17.5679 18.8664 17.5684 18.9057V21.3315C17.5701 21.4103 17.6021 21.4853 17.6578 21.5409C17.7135 21.5966 17.7885 21.6286 17.8672 21.6303H20.2929Z" fill="#B32B37"/>
<path d="M23.5722 18.6069H25.998C26.0772 18.6069 26.1532 18.6384 26.2093 18.6944C26.2653 18.7505 26.2968 18.8265 26.2968 18.9057V21.3315C26.2968 21.4108 26.2653 21.4868 26.2093 21.5428C26.1532 21.5988 26.0772 21.6303 25.998 21.6303H23.5722C23.493 21.6303 23.417 21.5988 23.361 21.5428C23.3049 21.4868 23.2734 21.4108 23.2734 21.3315V18.9057C23.2734 18.8264 23.3049 18.7504 23.3609 18.6944C23.417 18.6384 23.4929 18.6069 23.5722 18.6069Z" fill="#B32B37"/>
<path d="M8.88085 18.6069H6.45504C6.29002 18.6069 6.15625 18.7407 6.15625 18.9057V21.3315C6.15625 21.4966 6.29002 21.6303 6.45504 21.6303H8.88085C9.04587 21.6303 9.17964 21.4966 9.17964 21.3315V18.9057C9.17964 18.7407 9.04587 18.6069 8.88085 18.6069Z" fill="#B32B37"/>
<path d="M14.5859 26.5671C14.6253 26.5675 14.6643 26.5601 14.7008 26.5452C14.7372 26.5303 14.7703 26.5083 14.7981 26.4805C14.826 26.4527 14.848 26.4196 14.8628 26.3831C14.8777 26.3467 14.8851 26.3076 14.8847 26.2683V23.8425C14.8851 23.8031 14.8777 23.7641 14.8628 23.7276C14.848 23.6912 14.826 23.6581 14.7981 23.6303C14.7703 23.6024 14.7372 23.5804 14.7008 23.5656C14.6643 23.5507 14.6253 23.5433 14.5859 23.5437H12.1601C12.1208 23.5433 12.0817 23.5507 12.0453 23.5656C12.0089 23.5804 11.9757 23.6024 11.9479 23.6303C11.9201 23.6581 11.8981 23.6912 11.8832 23.7276C11.8684 23.7641 11.8609 23.8031 11.8613 23.8425V26.2683C11.8631 26.347 11.8951 26.422 11.9508 26.4777C12.0064 26.5333 12.0814 26.5654 12.1601 26.5671H14.5859Z" fill="#B32B37"/>
<path d="M8.88083 26.5671C8.92019 26.5675 8.95924 26.5601 8.99568 26.5452C9.03213 26.5303 9.06523 26.5083 9.09307 26.4805C9.1209 26.4527 9.14289 26.4196 9.15775 26.3831C9.17262 26.3467 9.18005 26.3076 9.17963 26.2683V23.8425C9.18005 23.8031 9.17261 23.7641 9.15775 23.7276C9.14288 23.6912 9.12089 23.6581 9.09306 23.6303C9.06523 23.6024 9.03212 23.5804 8.99567 23.5656C8.95923 23.5507 8.92019 23.5433 8.88083 23.5437H6.45506C6.41571 23.5433 6.37666 23.5507 6.34022 23.5656C6.30378 23.5804 6.27067 23.6024 6.24284 23.6303C6.21501 23.6581 6.19301 23.6912 6.17815 23.7276C6.16328 23.7641 6.15584 23.8031 6.15627 23.8425V26.2683C6.15798 26.347 6.19 26.422 6.24567 26.4777C6.30134 26.5333 6.37635 26.5654 6.45506 26.5671H8.88083Z" fill="#B32B37"/>
<path d="M23.5722 13.6628H25.998C26.0772 13.6628 26.1532 13.6943 26.2093 13.7504C26.2653 13.8064 26.2968 13.8824 26.2968 13.9616V16.3875C26.2968 16.4667 26.2653 16.5427 26.2093 16.5987C26.1532 16.6548 26.0772 16.6862 25.998 16.6862H23.5722C23.493 16.6862 23.417 16.6548 23.361 16.5987C23.3049 16.5427 23.2734 16.4667 23.2734 16.3875V13.9616C23.2734 13.8823 23.3049 13.8064 23.3609 13.7503C23.417 13.6943 23.4929 13.6628 23.5722 13.6628Z" fill="#B32B37"/>
<path d="M17.8671 23.5439H20.2929C20.3322 23.5439 20.371 23.5517 20.4073 23.5667C20.4435 23.5817 20.4765 23.6037 20.5042 23.6315C20.532 23.6592 20.554 23.6921 20.569 23.7284C20.584 23.7646 20.5917 23.8035 20.5917 23.8427V26.2685C20.5917 26.3478 20.5602 26.4238 20.5042 26.4798C20.4482 26.5358 20.3722 26.5673 20.2929 26.5673H17.8671C17.8279 26.5673 17.789 26.5596 17.7528 26.5446C17.7165 26.5296 17.6836 26.5075 17.6559 26.4798C17.6281 26.4521 17.6061 26.4191 17.5911 26.3829C17.5761 26.3466 17.5684 26.3078 17.5684 26.2686V23.8427C17.5684 23.7634 17.5998 23.6875 17.6559 23.6314C17.7119 23.5754 17.7879 23.5439 17.8671 23.5439Z" fill="#B32B37"/>
<path d="M29.4616 4.47009H24.8874V2.33987C24.8874 1.96606 24.7389 1.60756 24.4746 1.34324C24.2103 1.07892 23.8518 0.93042 23.478 0.93042C23.1042 0.93042 22.7457 1.07892 22.4813 1.34324C22.217 1.60756 22.0685 1.96606 22.0685 2.33987V4.47009H10.385V2.33987C10.385 1.96606 10.2365 1.60756 9.9722 1.34324C9.70788 1.07892 9.34938 0.93042 8.97557 0.93042C8.60176 0.93042 8.24326 1.07892 7.97894 1.34324C7.71462 1.60756 7.56612 1.96606 7.56612 2.33987V4.47009H2.99187C2.63767 4.47018 2.298 4.61093 2.04754 4.86139C1.79709 5.11184 1.65634 5.45151 1.65625 5.80571V8.90129H30.7973V5.80571C30.7972 5.45151 30.6564 5.11184 30.406 4.86139C30.1555 4.61093 29.8158 4.47018 29.4616 4.47009Z" fill="#767676"/>
<path d="M1.65625 28.7338C1.65634 29.088 1.79708 29.4277 2.04754 29.6782C2.298 29.9286 2.63767 30.0694 2.99187 30.0695H29.4616C29.8158 30.0694 30.1555 29.9286 30.406 29.6782C30.6564 29.4277 30.7972 29.088 30.7973 28.7338V10.1604H1.65625V28.7338ZM3.39534 11.8995H29.0582V28.3304H3.39534L3.39534 11.8995Z" fill="#767676"/>
</svg>
