<svg width="45" height="45" viewBox="0 0 45 45" fill="none" xmlns="http://www.w3.org/2000/svg">
<path d="M32.3438 12.6562C28.4063 12.6562 25.3125 15.75 25.3125 19.6875C25.3125 23.625 28.4063 26.7188 32.3438 26.7188C32.7656 26.7188 33.3281 26.7187 33.75 26.5781C31.9219 28.4062 29.5312 29.5312 26.7188 29.5312C25.875 29.5312 25.3125 30.0937 25.3125 30.9375C25.3125 31.7813 25.875 32.3438 26.7188 32.3438C33.75 32.3438 39.375 26.7188 39.375 19.6875C39.375 15.75 36.2812 12.6562 32.3438 12.6562Z" fill="url(#paint0_linear_104_143)"/>
<path d="M32.3438 12.6562C28.4063 12.6562 25.3125 15.75 25.3125 19.6875C25.3125 23.625 28.4063 26.7188 32.3438 26.7188C32.7656 26.7188 33.3281 26.7187 33.75 26.5781C31.9219 28.4062 29.5312 29.5312 26.7188 29.5312C25.875 29.5312 25.3125 30.0937 25.3125 30.9375C25.3125 31.7813 25.875 32.3438 26.7188 32.3438C33.75 32.3438 39.375 26.7188 39.375 19.6875C39.375 15.75 36.2812 12.6562 32.3438 12.6562Z" fill="url(#paint1_linear_104_143)"/>
<path d="M12.6562 12.6562C8.71875 12.6562 5.625 15.75 5.625 19.6875C5.625 23.625 8.71875 26.7188 12.6562 26.7188C13.0781 26.7188 13.6406 26.7187 14.0625 26.5781C12.2344 28.4062 9.84375 29.5312 7.03125 29.5312C6.1875 29.5312 5.625 30.0937 5.625 30.9375C5.625 31.7813 6.1875 32.3438 7.03125 32.3438C14.0625 32.3438 19.6875 26.7188 19.6875 19.6875C19.6875 15.75 16.5937 12.6562 12.6562 12.6562Z" fill="url(#paint2_linear_104_143)"/>
<path d="M12.6562 12.6562C8.71875 12.6562 5.625 15.75 5.625 19.6875C5.625 23.625 8.71875 26.7188 12.6562 26.7188C13.0781 26.7188 13.6406 26.7187 14.0625 26.5781C12.2344 28.4062 9.84375 29.5312 7.03125 29.5312C6.1875 29.5312 5.625 30.0937 5.625 30.9375C5.625 31.7813 6.1875 32.3438 7.03125 32.3438C14.0625 32.3438 19.6875 26.7188 19.6875 19.6875C19.6875 15.75 16.5937 12.6562 12.6562 12.6562Z" fill="url(#paint3_linear_104_143)"/>
<defs>
<linearGradient id="paint0_linear_104_143" x1="25.8475" y1="22.5" x2="39.1496" y2="22.5178" gradientUnits="userSpaceOnUse">
<stop stop-color="#B98726"/>
<stop offset="0.171875" stop-color="#CD9F45"/>
<stop offset="0.385417" stop-color="#E6BD6B"/>
<stop offset="0.59375" stop-color="#E6BD6B"/>
<stop offset="0.796875" stop-color="#D0A249"/>
<stop offset="1" stop-color="#B98726"/>
</linearGradient>
<linearGradient id="paint1_linear_104_143" x1="32.3437" y1="22.5" x2="32.3438" y2="28.4062" gradientUnits="userSpaceOnUse">
<stop stop-color="#DDAE5D" stop-opacity="0.51"/>
<stop offset="0.489583" stop-color="#DDAE5D" stop-opacity="0.51"/>
<stop offset="1" stop-color="#C19B51"/>
</linearGradient>
<linearGradient id="paint2_linear_104_143" x1="6.15999" y1="22.5" x2="19.4621" y2="22.5178" gradientUnits="userSpaceOnUse">
<stop stop-color="#B98726"/>
<stop offset="0.171875" stop-color="#CD9F45"/>
<stop offset="0.385417" stop-color="#E6BD6B"/>
<stop offset="0.59375" stop-color="#E6BD6B"/>
<stop offset="0.796875" stop-color="#D0A249"/>
<stop offset="1" stop-color="#B98726"/>
</linearGradient>
<linearGradient id="paint3_linear_104_143" x1="12.6562" y1="22.5" x2="12.6563" y2="28.4062" gradientUnits="userSpaceOnUse">
<stop stop-color="#DDAE5D" stop-opacity="0.51"/>
<stop offset="0.489583" stop-color="#DDAE5D" stop-opacity="0.51"/>
<stop offset="1" stop-color="#C19B51"/>
</linearGradient>
</defs>
</svg>
