<svg width="106" height="20" viewBox="0 0 106 20" fill="none" xmlns="http://www.w3.org/2000/svg">
<path d="M9.1697 1.24155C9.29667 0.850763 9.84953 0.850763 9.9765 1.24155L11.6254 6.31636C11.6822 6.49113 11.8451 6.60945 12.0288 6.60945H17.3648C17.7757 6.60945 17.9465 7.13525 17.6141 7.37677L13.2972 10.5132C13.1485 10.6212 13.0863 10.8126 13.1431 10.9874L14.792 16.0622C14.919 16.453 14.4717 16.778 14.1393 16.5364L9.82242 13.4C9.67375 13.292 9.47245 13.292 9.32378 13.4L5.00689 16.5364C4.67447 16.778 4.22719 16.453 4.35417 16.0622L6.00307 10.9874C6.05986 10.8126 5.99765 10.6212 5.84899 10.5132L1.5321 7.37677C1.19967 7.13525 1.37052 6.60945 1.78141 6.60945H7.11739C7.30114 6.60945 7.46401 6.49113 7.52079 6.31636L9.1697 1.24155Z" fill="#EFC351"/>
<path d="M30.6599 1.24155C30.7869 0.850763 31.3398 0.850763 31.4667 1.24155L33.1156 6.31636C33.1724 6.49113 33.3353 6.60945 33.519 6.60945H38.855C39.2659 6.60945 39.4368 7.13525 39.1043 7.37677L34.7874 10.5132C34.6388 10.6212 34.5766 10.8126 34.6334 10.9874L36.2823 16.0622C36.4092 16.453 35.962 16.778 35.6295 16.5364L31.3127 13.4C31.164 13.292 30.9627 13.292 30.814 13.4L26.4971 16.5364C26.1647 16.778 25.7174 16.453 25.8444 16.0622L27.4933 10.9874C27.5501 10.8126 27.4879 10.6212 27.3392 10.5132L23.0223 7.37677C22.6899 7.13525 22.8608 6.60945 23.2716 6.60945H28.6076C28.7914 6.60945 28.9542 6.49113 29.011 6.31636L30.6599 1.24155Z" fill="#EFC351"/>
<path d="M52.1502 1.24155C52.2771 0.850763 52.83 0.850763 52.957 1.24155L54.6059 6.31636C54.6627 6.49113 54.8255 6.60945 55.0093 6.60945H60.3453C60.7562 6.60945 60.927 7.13525 60.5946 7.37677L56.2777 10.5132C56.129 10.6212 56.0668 10.8126 56.1236 10.9874L57.7725 16.0622C57.8995 16.453 57.4522 16.778 57.1198 16.5364L52.8029 13.4C52.6542 13.292 52.4529 13.292 52.3043 13.4L47.9874 16.5364C47.6549 16.778 47.2077 16.453 47.3346 16.0622L48.9835 10.9874C49.0403 10.8126 48.9781 10.6212 48.8295 10.5132L44.5126 7.37677C44.1801 7.13525 44.351 6.60945 44.7619 6.60945H50.0979C50.2816 6.60945 50.4445 6.49113 50.5013 6.31636L52.1502 1.24155Z" fill="#EFC351"/>
<path d="M73.6384 1.24155C73.7654 0.850763 74.3183 0.850763 74.4453 1.24155L76.0942 6.31636C76.1509 6.49113 76.3138 6.60945 76.4976 6.60945H81.8335C82.2444 6.60945 82.4153 7.13525 82.0829 7.37677L77.766 10.5132C77.6173 10.6212 77.5551 10.8126 77.6119 10.9874L79.2608 16.0622C79.3878 16.453 78.9405 16.778 78.6081 16.5364L74.2912 13.4C74.1425 13.292 73.9412 13.292 73.7925 13.4L69.4756 16.5364C69.1432 16.778 68.6959 16.453 68.8229 16.0622L70.4718 10.9874C70.5286 10.8126 70.4664 10.6212 70.3177 10.5132L66.0008 7.37677C65.6684 7.13525 65.8393 6.60945 66.2502 6.60945H71.5861C71.7699 6.60945 71.9328 6.49113 71.9895 6.31636L73.6384 1.24155Z" fill="#EFC351"/>
<path d="M95.1306 1.24155C95.2576 0.850763 95.8105 0.850763 95.9374 1.24155L97.5863 6.31636C97.6431 6.49113 97.806 6.60945 97.9898 6.60945H103.326C103.737 6.60945 103.907 7.13525 103.575 7.37677L99.2581 10.5132C99.1095 10.6212 99.0473 10.8126 99.1041 10.9874L100.753 16.0622C100.88 16.453 100.433 16.778 100.1 16.5364L95.7834 13.4C95.6347 13.292 95.4334 13.292 95.2847 13.4L90.9678 16.5364C90.6354 16.778 90.1881 16.453 90.3151 16.0622L91.964 10.9874C92.0208 10.8126 91.9586 10.6212 91.8099 10.5132L87.493 7.37677C87.1606 7.13525 87.3315 6.60945 87.7424 6.60945H93.0783C93.2621 6.60945 93.4249 6.49113 93.4817 6.31636L95.1306 1.24155Z" fill="#EFC351"/>
</svg>
