<svg width="28" height="27" viewBox="0 0 28 27" fill="none" xmlns="http://www.w3.org/2000/svg">
<path d="M12.9502 1.75227C13.1294 1.20073 13.9097 1.20073 14.0889 1.75227L16.4161 8.91462C16.4962 9.16127 16.7261 9.32827 16.9854 9.32827H24.5164C25.0963 9.32827 25.3374 10.0704 24.8682 10.4112L18.7756 14.8378C18.5658 14.9902 18.478 15.2605 18.5581 15.5071L20.8853 22.6695C21.0645 23.221 20.4332 23.6796 19.9641 23.3388L13.8714 18.9122C13.6616 18.7598 13.3775 18.7598 13.1677 18.9122L7.075 23.3388C6.60583 23.6796 5.97457 23.221 6.15378 22.6695L8.48096 15.5071C8.56111 15.2605 8.47331 14.9902 8.26349 14.8378L2.17083 10.4112C1.70167 10.0704 1.94279 9.32827 2.52271 9.32827H10.0537C10.313 9.32827 10.5429 9.16127 10.623 8.91462L12.9502 1.75227Z" fill="#EFC351"/>
</svg>
