<svg width="32" height="33" viewBox="0 0 32 33" fill="none" xmlns="http://www.w3.org/2000/svg">
<g clip-path="url(#clip0_93_887)">
<g filter="url(#filter0_d_93_887)">
<path fill-rule="evenodd" clip-rule="evenodd" d="M16.9457 9.83019L15.7108 5.83008L14.5022 9.80262H10.4824L13.7403 12.2854L12.4792 16.3131L15.7371 13.8303L18.995 16.3131L17.7075 12.313L20.9655 9.83019H16.9457Z" fill="white"/>
<path fill-rule="evenodd" clip-rule="evenodd" d="M5.85646 0.588867H25.5928V2.54103H31.4492V9.48093C31.4492 11.3215 30.718 13.0867 29.4166 14.3882C28.3554 15.4493 26.986 16.1313 25.5189 16.347C25.3032 17.8142 24.6213 19.1835 23.56 20.2446C22.2839 21.5208 20.5619 22.2487 18.7603 22.2765V25.0981C18.7603 25.3286 18.8517 25.5495 19.0146 25.7123C19.1776 25.8753 19.3986 25.9669 19.6289 25.9669C20.6929 25.9669 21.7132 26.3895 22.4655 27.1418C23.2179 27.8941 23.6406 28.9146 23.6406 29.9785V32.0381H7.80862V29.9785C7.80862 28.9146 8.2313 27.8941 8.98363 27.1418C9.73595 26.3895 10.7563 25.9669 11.8203 25.9669C12.0507 25.9669 12.2717 25.8753 12.4346 25.7123C12.5975 25.5495 12.689 25.3286 12.689 25.0981V22.2765C10.8873 22.2487 9.16526 21.5208 7.88911 20.2446C6.82798 19.1835 6.14599 17.8142 5.93027 16.347C4.46312 16.1313 3.09376 15.4493 2.03265 14.3882C0.731159 13.0867 0 11.3215 0 9.48093V2.54103H5.85646V0.588867ZM8.02334 2.75575V15.3374C8.02334 16.6033 8.52622 17.8173 9.42133 18.7124C10.3164 19.6076 11.5305 20.1105 12.7964 20.1105H14.8559V25.0981C14.8559 25.9032 14.5361 26.6753 13.9668 27.2447C13.3975 27.8139 12.6254 28.1338 11.8203 28.1338C11.331 28.1338 10.8618 28.328 10.5158 28.6741C10.1953 28.9947 10.0049 29.4211 9.97863 29.8712H21.4706C21.4444 29.4211 21.2539 28.9947 20.9334 28.6741C20.5874 28.328 20.1181 28.1338 19.6289 28.1338C18.8238 28.1338 18.0517 27.8139 17.4825 27.2447C16.9131 26.6753 16.5934 25.9032 16.5934 25.0981V20.1105H18.6528C19.9186 20.1105 21.1327 19.6076 22.0279 18.7124C22.923 17.8173 23.4259 16.6033 23.4259 15.3374V2.75575H8.02334ZM5.85646 4.70791H2.16688V9.48093C2.16688 10.7468 2.66976 11.9608 3.56486 12.856C4.19997 13.4911 4.99564 13.9287 5.85646 14.1294V4.70791ZM25.5928 14.1294V4.70791H29.2823V9.48093C29.2823 10.7468 28.7794 11.9608 27.8843 12.856C27.2492 13.4911 26.4535 13.9287 25.5928 14.1294Z" fill="white"/>
</g>
</g>
<defs>
<filter id="filter0_d_93_887" x="-3.88462" y="-0.706006" width="39.2185" height="39.2185" filterUnits="userSpaceOnUse" color-interpolation-filters="sRGB">
<feFlood flood-opacity="0" result="BackgroundImageFix"/>
<feColorMatrix in="SourceAlpha" type="matrix" values="0 0 0 0 0 0 0 0 0 0 0 0 0 0 0 0 0 0 127 0" result="hardAlpha"/>
<feOffset dy="2.58975"/>
<feGaussianBlur stdDeviation="1.94231"/>
<feComposite in2="hardAlpha" operator="out"/>
<feColorMatrix type="matrix" values="0 0 0 0 0 0 0 0 0 0 0 0 0 0 0 0 0 0 0.25 0"/>
<feBlend mode="normal" in2="BackgroundImageFix" result="effect1_dropShadow_93_887"/>
<feBlend mode="normal" in="SourceGraphic" in2="effect1_dropShadow_93_887" result="shape"/>
</filter>
<clipPath id="clip0_93_887">
<rect width="31.4492" height="31.4492" fill="white" transform="translate(0 0.589844)"/>
</clipPath>
</defs>
</svg>
