<svg width="32" height="31" viewBox="0 0 32 31" fill="none" xmlns="http://www.w3.org/2000/svg">
<g clip-path="url(#clip0_90_733)">
<path d="M5.23675 10.4174L6.89784 24.5418H25.5547L27.2158 10.4174L22.0362 13.87L16.2263 5.73641L10.4163 13.87L5.23675 10.4174ZM4.34421 6.71678L9.76792 10.3335L15.1748 2.76428C15.2943 2.59684 15.4521 2.46036 15.6349 2.36619C15.8178 2.27203 16.0206 2.2229 16.2263 2.2229C16.432 2.2229 16.6347 2.27203 16.8176 2.36619C17.0004 2.46036 17.1582 2.59684 17.2777 2.76428L22.6846 10.3335L28.1096 6.71678C28.3149 6.58019 28.555 6.50522 28.8016 6.50073C29.0482 6.49625 29.2908 6.56245 29.501 6.69149C29.7111 6.82054 29.8799 7.00705 29.9875 7.22897C30.095 7.4509 30.1368 7.69897 30.1078 7.94387L27.9856 25.9846C27.9486 26.2988 27.7975 26.5885 27.5611 26.7987C27.3247 27.0089 27.0193 27.1251 26.703 27.1251H5.74954C5.43317 27.1251 5.12782 27.0089 4.8914 26.7987C4.65498 26.5885 4.50393 26.2988 4.46692 25.9846L2.34471 7.94258C2.31604 7.69778 2.358 7.4499 2.46564 7.22818C2.57328 7.00646 2.74211 6.82016 2.9522 6.69129C3.16228 6.56241 3.40486 6.49633 3.65128 6.50085C3.89771 6.50537 4.1377 6.58029 4.34292 6.71678H4.34421Z" fill="url(#paint0_linear_90_733)"/>
<path d="M5.23675 10.4174L6.89784 24.5418H25.5547L27.2158 10.4174L22.0362 13.87L16.2263 5.73641L10.4163 13.87L5.23675 10.4174ZM4.34421 6.71678L9.76792 10.3335L15.1748 2.76428C15.2943 2.59684 15.4521 2.46036 15.6349 2.36619C15.8178 2.27203 16.0206 2.2229 16.2263 2.2229C16.432 2.2229 16.6347 2.27203 16.8176 2.36619C17.0004 2.46036 17.1582 2.59684 17.2777 2.76428L22.6846 10.3335L28.1096 6.71678C28.3149 6.58019 28.555 6.50522 28.8016 6.50073C29.0482 6.49625 29.2908 6.56245 29.501 6.69149C29.7111 6.82054 29.8799 7.00705 29.9875 7.22897C30.095 7.4509 30.1368 7.69897 30.1078 7.94387L27.9856 25.9846C27.9486 26.2988 27.7975 26.5885 27.5611 26.7987C27.3247 27.0089 27.0193 27.1251 26.703 27.1251H5.74954C5.43317 27.1251 5.12782 27.0089 4.8914 26.7987C4.65498 26.5885 4.50393 26.2988 4.46692 25.9846L2.34471 7.94258C2.31604 7.69778 2.358 7.4499 2.46564 7.22818C2.57328 7.00646 2.74211 6.82016 2.9522 6.69129C3.16228 6.56241 3.40486 6.49633 3.65128 6.50085C3.89771 6.50537 4.1377 6.58029 4.34292 6.71678H4.34421Z" fill="url(#paint1_linear_90_733)"/>
<path d="M5.23675 10.4174L6.89784 24.5418H25.5547L27.2158 10.4174L22.0362 13.87L16.2263 5.73641L10.4163 13.87L5.23675 10.4174ZM4.34421 6.71678L9.76792 10.3335L15.1748 2.76428C15.2943 2.59684 15.4521 2.46036 15.6349 2.36619C15.8178 2.27203 16.0206 2.2229 16.2263 2.2229C16.432 2.2229 16.6347 2.27203 16.8176 2.36619C17.0004 2.46036 17.1582 2.59684 17.2777 2.76428L22.6846 10.3335L28.1096 6.71678C28.3149 6.58019 28.555 6.50522 28.8016 6.50073C29.0482 6.49625 29.2908 6.56245 29.501 6.69149C29.7111 6.82054 29.8799 7.00705 29.9875 7.22897C30.095 7.4509 30.1368 7.69897 30.1078 7.94387L27.9856 25.9846C27.9486 26.2988 27.7975 26.5885 27.5611 26.7987C27.3247 27.0089 27.0193 27.1251 26.703 27.1251H5.74954C5.43317 27.1251 5.12782 27.0089 4.8914 26.7987C4.65498 26.5885 4.50393 26.2988 4.46692 25.9846L2.34471 7.94258C2.31604 7.69778 2.358 7.4499 2.46564 7.22818C2.57328 7.00646 2.74211 6.82016 2.9522 6.69129C3.16228 6.56241 3.40486 6.49633 3.65128 6.50085C3.89771 6.50537 4.1377 6.58029 4.34292 6.71678H4.34421Z" stroke="#C79739" stroke-width="0.2"/>
<circle cx="16.2266" cy="17.5" r="2.5" fill="#B32B37"/>
</g>
<defs>
<linearGradient id="paint0_linear_90_733" x1="3.39282" y1="14.674" x2="29.6715" y2="14.7289" gradientUnits="userSpaceOnUse">
<stop stop-color="#B98726"/>
<stop offset="0.171875" stop-color="#CD9F45"/>
<stop offset="0.385417" stop-color="#E6BD6B"/>
<stop offset="0.59375" stop-color="#E6BD6B"/>
<stop offset="0.796875" stop-color="#D0A249"/>
<stop offset="1" stop-color="#B98726"/>
</linearGradient>
<linearGradient id="paint1_linear_90_733" x1="16.2263" y1="14.674" x2="16.2264" y2="22.1447" gradientUnits="userSpaceOnUse">
<stop stop-color="#DDAE5D" stop-opacity="0.51"/>
<stop offset="0.489583" stop-color="#DDAE5D" stop-opacity="0.51"/>
<stop offset="1" stop-color="#C19B51"/>
</linearGradient>
<clipPath id="clip0_90_733">
<rect width="31" height="31" fill="white" transform="translate(0.726562)"/>
</clipPath>
</defs>
</svg>
