<svg width="19" height="18" viewBox="0 0 19 18" fill="none" xmlns="http://www.w3.org/2000/svg">
<path fill-rule="evenodd" clip-rule="evenodd" d="M12.0664 7.87498C12.6318 7.87488 13.182 7.69237 13.6353 7.35456C14.0887 7.01676 14.4209 6.5417 14.5827 5.99998H16.5664C16.7653 5.99998 16.9561 5.92096 17.0967 5.78031C17.2374 5.63966 17.3164 5.44889 17.3164 5.24998C17.3164 5.05107 17.2374 4.8603 17.0967 4.71965C16.9561 4.579 16.7653 4.49998 16.5664 4.49998H14.5827C14.4206 3.95854 14.0883 3.4838 13.635 3.14628C13.1817 2.80876 12.6316 2.62646 12.0664 2.62646C11.5012 2.62646 10.9512 2.80876 10.4978 3.14628C10.0445 3.4838 9.71218 3.95854 9.55016 4.49998H3.06641C2.86749 4.49998 2.67673 4.579 2.53608 4.71965C2.39542 4.8603 2.31641 5.05107 2.31641 5.24998C2.31641 5.44889 2.39542 5.63966 2.53608 5.78031C2.67673 5.92096 2.86749 5.99998 3.06641 5.99998H9.55016C9.71192 6.5417 10.0442 7.01676 10.4975 7.35456C10.9508 7.69237 11.5011 7.87488 12.0664 7.87498ZM3.06641 12C2.86749 12 2.67673 12.079 2.53608 12.2196C2.39542 12.3603 2.31641 12.5511 2.31641 12.75C2.31641 12.9489 2.39542 13.1397 2.53608 13.2803C2.67673 13.421 2.86749 13.5 3.06641 13.5H4.67516C4.83718 14.0414 5.16953 14.5162 5.62284 14.8537C6.07615 15.1912 6.62624 15.3735 7.19141 15.3735C7.75657 15.3735 8.30666 15.1912 8.75997 14.8537C9.21328 14.5162 9.54563 14.0414 9.70766 13.5H16.5664C16.7653 13.5 16.9561 13.421 17.0967 13.2803C17.2374 13.1397 17.3164 12.9489 17.3164 12.75C17.3164 12.5511 17.2374 12.3603 17.0967 12.2196C16.9561 12.079 16.7653 12 16.5664 12H9.70766C9.54563 11.4585 9.21328 10.9838 8.75997 10.6463C8.30666 10.3088 7.75657 10.1265 7.19141 10.1265C6.62624 10.1265 6.07615 10.3088 5.62284 10.6463C5.16953 10.9838 4.83718 11.4585 4.67516 12H3.06641Z" fill="#767676"/>
</svg>
