<svg width="32" height="31" viewBox="0 0 32 31" fill="none" xmlns="http://www.w3.org/2000/svg">
<path d="M16.2554 0C7.66697 0 0.738183 6.89658 0.726577 15.4418C0.714971 23.9987 7.725 31.0462 16.1742 30.9998C24.7742 30.9417 31.6682 24.0916 31.7262 15.5347C31.7842 7.02429 24.7858 0 16.2554 0ZM10.139 22.4313C9.81407 24.0103 9.52393 25.5893 9.22217 27.1683C4.61459 24.7302 2.1309 19.2268 2.52551 14.3969C2.54872 14.0602 2.64157 13.9325 3.03617 13.8628C3.36114 13.8048 3.60486 13.7583 3.74414 14.0486C4.18516 15.0006 5.0208 15.198 5.94928 15.407C6.62243 15.5579 7.20272 16.5797 7.82945 16.9396C8.15442 17.1718 8.47938 17.1486 8.80435 16.928C8.80435 17.5317 8.75793 17.5433 8.45617 18.1587C7.9339 19.2733 8.75793 20.2485 9.57035 20.9336C10.1158 21.398 10.2667 21.7811 10.139 22.4313ZM25.3777 25.6822C21.5129 28.9912 17.1259 29.9432 12.2165 28.5964C11.4621 28.3874 10.4872 28.0159 10.5917 27.3425C10.7077 26.5878 10.9399 25.4848 11.8567 25.1597C12.5415 24.9159 12.8781 24.3586 13.3771 23.9639C14.0735 23.395 14.3636 22.5126 15.3153 22.0249C16.0001 21.6766 15.9885 20.3414 16.4759 19.5055C16.6848 19.1572 16.1742 18.8901 15.884 18.8553C14.4101 18.6811 13.5164 17.5085 12.3674 16.8119C11.172 16.0804 10.0578 15.9527 8.80435 16.4403C8.47938 16.9164 8.16602 17.0092 7.82945 16.4519C8.34011 15.5115 6.72688 15.3141 7.08666 14.4085C7.09827 14.3853 6.70367 14.3388 6.54118 14.5014C6.04213 15.0355 5.6011 14.8845 5.40379 14.2924C5.20649 13.7119 5.27613 13.0501 6.06534 12.934C6.84294 12.8179 7.75981 12.3767 8.17763 13.6074C8.73472 11.564 9.84889 10.2752 12.0076 10.0778C11.5318 9.90367 11.23 9.61341 10.8122 8.99806C11.4621 9.6018 12.2049 8.88196 12.5879 9.65985C12.6111 9.7063 12.8432 9.69469 12.9361 9.63663C13.203 9.4857 12.9477 9.40443 12.8781 9.28832C12.3906 8.40593 11.9496 7.51193 10.6729 7.62803C10.4292 7.65125 10.1971 7.38422 10.081 7.10557C10.0694 7.10557 10.0578 7.10557 10.0462 7.09396C10.0462 7.08235 10.0462 7.08235 10.0346 7.07074C9.4775 7.17523 8.40975 6.72242 8.95523 8.05762C8.61866 8.12728 8.74632 9.3812 7.95711 8.40593C7.7366 8.13889 7.17951 8.17372 6.78491 8.02279C6.45994 7.90668 5.91446 7.94152 5.9957 7.43066C6.05373 7.04751 6.47155 6.85014 6.85454 6.8037C7.46966 6.73403 8.22405 7.02429 8.27048 5.93292C8.28208 5.71232 9.01326 5.82842 8.96684 5.93292C8.43296 7.16362 9.8721 6.52505 10.023 7.05912C10.0346 7.05912 10.0346 7.05912 10.0462 7.05912C10.0462 7.07074 10.0578 7.08235 10.0578 7.09396C10.7774 7.33777 11.1023 6.62954 11.7755 6.45538C10.4988 5.60782 9.2802 5.03891 7.87587 4.98086C10.7193 0.464416 20.863 0.835949 25.6679 5.67749C25.1572 6.1419 24.693 6.64115 24.0314 6.90819C23.4743 7.12879 23.5556 7.51193 23.927 7.88346C24.1127 8.10406 24.1127 8.32466 23.927 8.54526C23.7645 8.64975 23.602 8.75424 23.4395 8.85874C22.9637 9.12578 22.6735 8.81229 22.3834 8.52203C22.128 8.27822 21.8727 8.09245 21.5361 8.45237C21.571 8.99806 22.5575 8.63814 22.4182 9.34637C22.2905 9.34637 22.1629 9.34637 22.0468 9.35798C22.7316 10.3449 22.1861 10.4029 21.3388 10.3797C20.8398 10.3681 20.9094 11.0415 21.0023 11.1576C21.7915 12.1793 20.8862 12.6089 20.3871 13.2359C19.4355 14.4201 19.273 16.2197 20.9558 17.2182C21.4897 17.5317 22.0816 17.2414 22.6271 17.1602C23.6484 17.0092 23.8457 17.462 24.3216 18.2167C25.4009 19.9234 24.3796 22.141 25.8071 23.6272C26.8401 24.6605 26.0161 25.1365 25.3777 25.6822ZM28.4997 12.5741C27.4784 12.3535 26.4687 12.5276 25.459 12.5044C25.2617 12.5044 24.9367 12.4115 24.8903 12.2838C24.4376 10.9486 23.3699 11.6917 22.5459 11.5756C23.2306 10.31 23.602 10.4494 24.8903 10.6119C25.7027 10.7164 26.1205 10.8906 26.5035 11.4827C26.5267 11.5175 26.5731 11.5291 26.608 11.5524C27.2695 10.4378 27.7918 12.0284 28.4417 11.6568C28.6158 11.564 28.9988 11.5756 28.9988 11.9471C28.9988 12.2722 28.8131 12.6437 28.4997 12.5741Z" fill="#767676"/>
<path d="M21.2878 3.49314C20.073 3.63428 20.4399 5.05979 19.7187 5.75137C19.1239 6.31593 18.5798 6.68289 17.8332 6.92283C17.0107 7.19099 16.1882 7.38859 15.4796 8.23542C14.7963 9.0258 13.7966 8.08017 13.6068 7.30391C13.088 5.22916 11.9238 4.72106 10.127 4.98922C11.1013 4.10004 11.9365 3.42257 13.2398 3.1403C14.9102 2.78745 16.5425 2.34991 18.2508 2.39226C18.8455 2.40637 19.4023 2.30757 19.6934 3.16852C20.0603 4.24118 20.7057 2.61808 21.2878 3.49314Z" fill="#B32B37"/>
</svg>
