<svg width="19" height="18" viewBox="0 0 19 18" fill="none" xmlns="http://www.w3.org/2000/svg">
<path d="M17.317 9.07844C17.317 10.5619 16.8772 12.012 16.053 13.2454C15.2289 14.4788 14.0575 15.4401 12.687 16.0078C11.3165 16.5755 9.80841 16.724 8.35349 16.4346C6.89857 16.1452 5.56214 15.4309 4.5132 14.382C3.46426 13.333 2.74993 11.9966 2.46053 10.5417C2.17112 9.08676 2.31966 7.5787 2.88734 6.20819C3.45502 4.83769 4.41635 3.6663 5.64977 2.84216C6.88319 2.01801 8.3333 1.57813 9.81673 1.57812C10.8017 1.57813 11.777 1.77213 12.687 2.14905C13.597 2.52598 14.4238 3.07845 15.1202 3.77492C15.8167 4.47139 16.3692 5.29821 16.7461 6.20819C17.123 7.11817 17.317 8.09349 17.317 9.07844ZM14.3991 7.19034L13.0046 7.02549L11.5978 6.85876L10.4164 4.29707C10.0896 3.58939 9.5562 3.58939 9.22936 4.29707L8.04799 6.85876L6.64115 7.02549L5.24757 7.19034C4.47357 7.28223 4.30873 7.79002 4.88094 8.3196L5.91167 9.27265L6.95188 10.2342L6.67525 11.624L6.40146 13.0005C6.24988 13.7651 6.68188 14.0787 7.36209 13.6988L9.82336 12.3203L12.2846 13.6988C12.9639 14.0787 13.3959 13.7651 13.2443 13.0005L12.6948 10.2342L13.7341 9.27265L14.7658 8.3196C15.338 7.79002 15.1731 7.28223 14.3991 7.19034Z" fill="#B32B37"/>
</svg>
