<svg width="24" height="24" viewBox="0 0 24 24" fill="none" xmlns="http://www.w3.org/2000/svg">
<path fill-rule="evenodd" clip-rule="evenodd" d="M22.4686 4.73046C22.4686 5.04411 22.344 5.34491 22.1222 5.56669C21.9004 5.78847 21.5996 5.91307 21.286 5.91307H2.36425C2.0506 5.91307 1.7498 5.78847 1.52802 5.56669C1.30624 5.34491 1.18164 5.04411 1.18164 4.73046C1.18164 4.41681 1.30624 4.11601 1.52802 3.89423C1.7498 3.67245 2.0506 3.54785 2.36425 3.54785H21.286C21.5996 3.54785 21.9004 3.67245 22.1222 3.89423C22.344 4.11601 22.4686 4.41681 22.4686 4.73046ZM22.4686 11.8261C22.4686 12.1398 22.344 12.4406 22.1222 12.6623C21.9004 12.8841 21.5996 13.0087 21.286 13.0087H2.36425C2.0506 13.0087 1.7498 12.8841 1.52802 12.6623C1.30624 12.4406 1.18164 12.1398 1.18164 11.8261C1.18164 11.5125 1.30624 11.2117 1.52802 10.9899C1.7498 10.7681 2.0506 10.6435 2.36425 10.6435H21.286C21.5996 10.6435 21.9004 10.7681 22.1222 10.9899C22.344 11.2117 22.4686 11.5125 22.4686 11.8261ZM21.286 20.1044C21.5996 20.1044 21.9004 19.9798 22.1222 19.758C22.344 19.5362 22.4686 19.2354 22.4686 18.9218C22.4686 18.6081 22.344 18.3073 22.1222 18.0855C21.9004 17.8638 21.5996 17.7392 21.286 17.7392H2.36425C2.0506 17.7392 1.7498 17.8638 1.52802 18.0855C1.30624 18.3073 1.18164 18.6081 1.18164 18.9218C1.18164 19.2354 1.30624 19.5362 1.52802 19.758C1.7498 19.9798 2.0506 20.1044 2.36425 20.1044H21.286Z" fill="#123044"/>
</svg>
