<svg width="19" height="18" viewBox="0 0 19 18" fill="none" xmlns="http://www.w3.org/2000/svg">
<g clip-path="url(#clip0_90_752)">
<path d="M3.60268 10.9286V12.6429C3.60954 13.848 4.17868 13.6607 4.60039 13.299L7.03125 11.1043V12.2143C7.03125 13.2557 7.27125 13.5 8.31696 13.5H12.1741C12.1741 13.5 14.4065 16.125 14.4241 16.1075C14.7455 16.5 15.616 16.3663 15.6027 15.6429V13.5H16.8884C17.9384 13.5 18.1741 13.239 18.1741 12.2143V5.78575C18.1741 4.75718 17.9213 4.50003 16.8884 4.50003H12.6027V3.64289C12.6027 2.58432 12.4055 2.35718 11.317 2.35718H2.31696C1.30554 2.35718 1.03125 2.57575 1.03125 3.64289V9.21432C1.03125 10.2596 1.26696 10.9286 2.31696 10.9286H3.60268ZM14.317 12.2143V14.2376L12.6027 12.2143H8.74554C8.42411 12.2143 8.31696 12.0986 8.31696 11.7857V6.21432C8.31696 5.92718 8.44982 5.78575 8.74554 5.78575H16.4598C16.7551 5.78575 16.8884 5.94432 16.8884 6.18861V11.7857C16.8884 12.0947 16.7345 12.2143 16.4598 12.2143H14.317Z" fill="#123044"/>
</g>
<defs>
<clipPath id="clip0_90_752">
<rect width="18" height="18" fill="white" transform="translate(0.816406)"/>
</clipPath>
</defs>
</svg>
