<svg width="59" height="43" viewBox="0 0 59 43" fill="none" xmlns="http://www.w3.org/2000/svg">
<path d="M50.4955 38.27L43.1304 27.1079H57.8606L50.4955 38.27Z" fill="#B32B37"/>
<path fill-rule="evenodd" clip-rule="evenodd" d="M40.3972 8.50454C40.3972 9.06843 40.1732 9.60922 39.7745 10.0079C39.3758 10.4067 38.835 10.6307 38.2711 10.6307H4.25308C3.6892 10.6307 3.14841 10.4067 2.74968 10.0079C2.35095 9.60922 2.12695 9.06843 2.12695 8.50454C2.12695 7.94066 2.35095 7.39987 2.74968 7.00115C3.14841 6.60242 3.6892 6.37842 4.25308 6.37842H38.2711C38.835 6.37842 39.3758 6.60242 39.7745 7.00115C40.1732 7.39987 40.3972 7.94066 40.3972 8.50454ZM40.3972 21.2613C40.3972 21.8252 40.1732 22.366 39.7745 22.7647C39.3758 23.1634 38.835 23.3874 38.2711 23.3874H4.25308C3.6892 23.3874 3.14841 23.1634 2.74968 22.7647C2.35095 22.366 2.12695 21.8252 2.12695 21.2613C2.12695 20.6974 2.35095 20.1566 2.74968 19.7579C3.14841 19.3592 3.6892 19.1352 4.25308 19.1352H38.2711C38.835 19.1352 39.3758 19.3592 39.7745 19.7579C40.1732 20.1566 40.3972 20.6974 40.3972 21.2613ZM38.2711 36.1442C38.835 36.1442 39.3758 35.9202 39.7745 35.5215C40.1732 35.1227 40.3972 34.5819 40.3972 34.0181C40.3972 33.4542 40.1732 32.9134 39.7745 32.5147C39.3758 32.1159 38.835 31.8919 38.2711 31.8919H4.25308C3.6892 31.8919 3.14841 32.1159 2.74968 32.5147C2.35095 32.9134 2.12695 33.4542 2.12695 34.0181C2.12695 34.5819 2.35095 35.1227 2.74968 35.5215C3.14841 35.9202 3.6892 36.1442 4.25308 36.1442H38.2711Z" fill="#B32B37"/>
</svg>
