<svg width="68" height="68" viewBox="0 0 68 68" fill="none" xmlns="http://www.w3.org/2000/svg">
<g filter="url(#filter0_d_52_327)">
<circle cx="26.5" cy="26.5" r="26.5" transform="matrix(-1 0 0 1 60.8164 6.04785)" fill="white"/>
</g>
<path d="M15.0183 34.885C14.3127 34.1794 14.3127 33.0354 15.0183 32.3298L26.5168 20.8313C27.2225 20.1257 28.3665 20.1257 29.0721 20.8313C29.7777 21.5369 29.7777 22.6809 29.0721 23.3865L18.8512 33.6074L29.0721 43.8283C29.7777 44.5339 29.7777 45.6779 29.0721 46.3836C28.3665 47.0892 27.2224 47.0892 26.5168 46.3836L15.0183 34.885ZM52.3359 35.4142L16.2959 35.4142L16.2959 31.8006L52.3359 31.8006L52.3359 35.4142Z" fill="black"/>
<defs>
<filter id="filter0_d_52_327" x="0.816406" y="0.0478516" width="67" height="67" filterUnits="userSpaceOnUse" color-interpolation-filters="sRGB">
<feFlood flood-opacity="0" result="BackgroundImageFix"/>
<feColorMatrix in="SourceAlpha" type="matrix" values="0 0 0 0 0 0 0 0 0 0 0 0 0 0 0 0 0 0 127 0" result="hardAlpha"/>
<feOffset dy="1"/>
<feGaussianBlur stdDeviation="3.5"/>
<feComposite in2="hardAlpha" operator="out"/>
<feColorMatrix type="matrix" values="0 0 0 0 0 0 0 0 0 0 0 0 0 0 0 0 0 0 0.09 0"/>
<feBlend mode="normal" in2="BackgroundImageFix" result="effect1_dropShadow_52_327"/>
<feBlend mode="normal" in="SourceGraphic" in2="effect1_dropShadow_52_327" result="shape"/>
</filter>
</defs>
</svg>
