<svg width="32" height="31" viewBox="0 0 32 31" fill="none" xmlns="http://www.w3.org/2000/svg">
<path fill-rule="evenodd" clip-rule="evenodd" d="M25.2175 6.51023C27.0932 8.38585 27.0932 11.4295 25.2175 13.3052C23.3419 15.1809 20.2982 15.1809 18.4224 13.3052C16.5467 11.4296 16.5467 8.38598 18.4224 6.51023C20.298 4.63461 23.3417 4.63461 25.2175 6.51023ZM23.6877 8.04002C22.6568 7.0077 20.9829 7.0077 19.952 8.04002C18.9197 9.07091 18.9197 10.7447 19.952 11.7756C20.9829 12.8079 22.6568 12.8079 23.6877 11.7756C24.7201 10.7447 24.7201 9.07091 23.6877 8.04002Z" fill="#B32B37"/>
<path fill-rule="evenodd" clip-rule="evenodd" d="M31.2826 1.18185C31.2826 1.18185 34.0695 10.6424 25.677 19.0335C21.9068 22.8036 16.9324 25.572 12.9678 26.2567C12.6188 26.3158 12.2628 26.2019 12.0135 25.9496L5.33633 19.1794C5.08699 18.9257 4.97741 18.5651 5.045 18.2163C5.79761 14.312 8.95087 9.79069 12.6923 6.04933C21.0835 -2.34293 30.5443 0.443846 30.5443 0.443846C30.9003 0.547634 31.1787 0.825928 31.2824 1.18192L31.2826 1.18185ZM29.3362 2.39014C27.2918 2.0182 20.4377 1.36363 14.2221 7.57756C10.9824 10.8172 8.15499 14.6537 7.28979 18.0805C7.28979 18.0805 13.145 24.0177 13.1464 24.0177C16.6571 23.2434 20.8857 20.7665 24.1489 17.5038C30.3633 11.2884 29.7085 4.43408 29.3365 2.39008L29.3362 2.39014Z" fill="#767676"/>
<path fill-rule="evenodd" clip-rule="evenodd" d="M3.29332 13.8824L6.86899 14.4779C7.45721 14.5759 7.85666 15.1339 7.75724 15.7221C7.65924 16.3118 7.10262 16.7098 6.51295 16.6118L2.35052 15.9183C1.71184 15.8116 1.17698 15.3719 0.949095 14.7648C0.719795 14.1578 0.832273 13.476 1.24333 12.9727L4.78568 8.6431C5.21967 8.11258 5.84966 7.77804 6.53178 7.71601L11.7092 7.24607C12.3032 7.19128 12.8294 7.63105 12.8842 8.22506C12.9376 8.81906 12.4992 9.34524 11.9052 9.40005L6.72778 9.86999C6.62254 9.88013 6.52599 9.93057 6.45962 10.0126L3.29357 13.8822L3.29332 13.8824Z" fill="#767676"/>
<path fill-rule="evenodd" clip-rule="evenodd" d="M17.8435 28.4327L21.7132 25.2667C21.7953 25.2003 21.846 25.1038 21.8559 24.9986L22.3258 19.8213C22.3806 19.2273 22.9068 18.789 23.5008 18.8423C24.0948 18.8971 24.5346 19.4232 24.4798 20.0173L24.0099 25.1946C23.9479 25.8764 23.6133 26.5066 23.0828 26.9406L18.7531 30.4829C18.2498 30.8937 17.5679 31.0062 16.9609 30.7771C16.3538 30.5493 15.9141 30.0144 15.8074 29.3757L14.9641 24.3095C14.8661 23.7213 15.2638 23.1632 15.8523 23.0652C16.442 22.9672 16.9986 23.3664 17.0966 23.9549L17.8434 28.4329L17.8435 28.4327Z" fill="#767676"/>
<path fill-rule="evenodd" clip-rule="evenodd" d="M7.88906 14.3595C7.46667 13.9371 7.46667 13.2521 7.88906 12.8297C8.31146 12.4073 8.99648 12.4073 9.41889 12.8297L18.897 22.3076C19.3194 22.73 19.3194 23.415 18.897 23.8374C18.4746 24.2598 17.7896 24.2598 17.3672 23.8374L7.88906 14.3595Z" fill="#767676"/>
<path fill-rule="evenodd" clip-rule="evenodd" d="M9.99628 26.521C10.4187 26.1001 11.1037 26.1001 11.5261 26.521C11.9471 26.9434 11.9471 27.6284 11.5261 28.0508L8.89201 30.6834C8.47106 31.1057 7.78459 31.1057 7.36367 30.6834C6.94128 30.2624 6.94128 29.576 7.36367 29.1551L9.99628 26.521Z" fill="#767676"/>
<path fill-rule="evenodd" clip-rule="evenodd" d="M5.7828 24.4146C6.2052 23.9936 6.89022 23.9936 7.31262 24.4146C7.73357 24.837 7.73357 25.522 7.31262 25.9444L3.62592 29.631C3.20352 30.0534 2.5185 30.0534 2.0961 29.631C1.6737 29.2086 1.6737 28.5236 2.0961 28.1012L5.7828 24.4146Z" fill="#767676"/>
<path fill-rule="evenodd" clip-rule="evenodd" d="M3.67597 20.2017C4.09837 19.7808 4.78339 19.7808 5.20579 20.2017C5.62674 20.6241 5.62674 21.3091 5.20579 21.7315L2.5717 24.364C2.15075 24.7864 1.46428 24.7864 1.04336 24.364C0.620963 23.9431 0.620963 23.2566 1.04336 22.8357L3.67597 20.2017Z" fill="#767676"/>
</svg>
