<svg width="42" height="42" viewBox="0 0 42 42" fill="none" xmlns="http://www.w3.org/2000/svg">
<path d="M38.5015 21.1829C38.5015 24.6442 37.4751 28.0278 35.5521 30.9058C33.6291 33.7837 30.8958 36.0268 27.698 37.3514C24.5001 38.676 20.9813 39.0226 17.5865 38.3473C14.1917 37.6721 11.0734 36.0053 8.62585 33.5578C6.17833 31.1102 4.51155 27.9919 3.83628 24.5971C3.16101 21.2023 3.50758 17.6835 4.83217 14.4856C6.15676 11.2878 8.39988 8.55454 11.2779 6.63153C14.1558 4.70853 17.5394 3.68213 21.0007 3.68213C23.299 3.68213 25.5747 4.1348 27.698 5.01429C29.8213 5.89379 31.7505 7.18288 33.3756 8.80798C35.0007 10.4331 36.2898 12.3623 37.1693 14.4856C38.0488 16.6089 38.5015 18.8846 38.5015 21.1829ZM31.6931 16.7773L28.4392 16.3927L25.1565 16.0036L22.4 10.0263C21.6374 8.37508 20.3928 8.37508 19.6302 10.0263L16.8737 16.0036L13.5911 16.3927L10.3394 16.7773C8.53338 16.9917 8.14874 18.1765 9.4839 19.4122L11.889 21.636L14.3161 23.8797L13.6706 27.1225L13.0318 30.3344C12.6781 32.1183 13.6861 32.85 15.2733 31.9636L21.0162 28.7473L26.7592 31.9636C28.3441 32.85 29.3521 32.1183 28.9984 30.3344L27.7163 23.8797L30.1413 21.636L32.5485 19.4122C33.8837 18.1765 33.4991 16.9917 31.6931 16.7773Z" fill="#B32B37"/>
</svg>
