<svg width="36" height="36" viewBox="0 0 36 36" fill="none" xmlns="http://www.w3.org/2000/svg">
<rect x="0.5" y="0.5" width="35" height="35" rx="3.5" fill="white"/>
<path fill-rule="evenodd" clip-rule="evenodd" d="M27.6003 7.32031C28.1967 7.32031 28.6803 7.80384 28.6803 8.40031V18.0003C28.6803 18.5968 28.1967 19.0803 27.6003 19.0803C27.0039 19.0803 26.5203 18.5968 26.5203 18.0003V11.0077L11.0076 26.5203H18.0003C18.5968 26.5203 19.0803 27.0039 19.0803 27.6003C19.0803 28.1967 18.5968 28.6803 18.0003 28.6803H8.40031C8.11387 28.6803 7.83917 28.5666 7.63663 28.364C7.4341 28.1615 7.32031 27.8867 7.32031 27.6003V18.0003C7.32031 17.4038 7.80384 16.9203 8.40031 16.9203C8.99678 16.9203 9.48031 17.4038 9.48031 18.0003V24.993L24.993 9.48031H18.0003C17.4038 9.48031 16.9203 8.99678 16.9203 8.40031C16.9203 7.80384 17.4038 7.32031 18.0003 7.32031H27.6003Z" fill="#575555"/>
<rect x="0.5" y="0.5" width="35" height="35" rx="3.5" stroke="#575555"/>
</svg>
