<svg width="61" height="63" viewBox="0 0 61 63" fill="none" xmlns="http://www.w3.org/2000/svg">
<g filter="url(#filter0_d_87_1307)">
<rect x="7" y="6" width="47" height="49" rx="18" fill="white"/>
</g>
<path d="M39.0826 36.7386L35.1316 32.4664L34.4998 33.0987L33.7843 32.3831C33.8391 32.3121 33.8939 32.2411 33.946 32.1686C35.0665 30.6033 35.5593 28.6747 35.327 26.7637C35.0948 24.8527 34.1544 23.0982 32.6916 21.8468C31.2287 20.5955 29.3498 19.9381 27.4259 20.0046C25.502 20.0711 23.673 20.8566 22.3001 22.206C20.9271 23.5554 20.1101 25.3706 20.0103 27.293C19.9106 29.2155 20.5354 31.1055 21.7613 32.5897C22.9872 34.074 24.7251 35.0446 26.6318 35.3098C28.5384 35.5751 30.4753 35.1157 32.0598 34.0225C32.1688 33.9472 32.276 33.8689 32.3812 33.7873L33.0957 34.5018L32.3863 35.2112L36.7454 39.0794C36.899 39.2331 37.0814 39.3551 37.2822 39.4382C37.483 39.5214 37.6983 39.5642 37.9156 39.5642C38.133 39.5641 38.3482 39.5212 38.5489 39.438C38.7497 39.3547 38.9321 39.2327 39.0856 39.0788C39.2392 38.925 39.361 38.7425 39.4439 38.5416C39.5269 38.3407 39.5695 38.1254 39.5692 37.9081C39.5689 37.6907 39.5258 37.4756 39.4423 37.2749C39.3588 37.0742 39.2366 36.892 39.0826 36.7386ZM31.458 31.4528C30.5851 32.3276 29.4357 32.8725 28.206 32.9948C26.9762 33.1171 25.7421 32.8091 24.714 32.1233C23.6859 31.4376 22.9274 30.4165 22.5679 29.2341C22.2084 28.0517 22.27 26.7812 22.7424 25.6392C23.2147 24.4972 24.0685 23.5543 25.1581 22.9713C26.2478 22.3883 27.5059 22.2013 28.7181 22.4421C29.9302 22.6828 31.0214 23.3366 31.8055 24.2918C32.5896 25.247 33.0182 26.4446 33.0182 27.6804C33.0182 29.0948 32.4571 30.4515 31.458 31.4528Z" fill="#123044"/>
<defs>
<filter id="filter0_d_87_1307" x="0" y="0" width="61" height="63" filterUnits="userSpaceOnUse" color-interpolation-filters="sRGB">
<feFlood flood-opacity="0" result="BackgroundImageFix"/>
<feColorMatrix in="SourceAlpha" type="matrix" values="0 0 0 0 0 0 0 0 0 0 0 0 0 0 0 0 0 0 127 0" result="hardAlpha"/>
<feOffset dy="1"/>
<feGaussianBlur stdDeviation="3.5"/>
<feComposite in2="hardAlpha" operator="out"/>
<feColorMatrix type="matrix" values="0 0 0 0 0 0 0 0 0 0 0 0 0 0 0 0 0 0 0.09 0"/>
<feBlend mode="normal" in2="BackgroundImageFix" result="effect1_dropShadow_87_1307"/>
<feBlend mode="normal" in="SourceGraphic" in2="effect1_dropShadow_87_1307" result="shape"/>
</filter>
</defs>
</svg>
