<svg width="21" height="20" viewBox="0 0 21 20" fill="none" xmlns="http://www.w3.org/2000/svg">
<path d="M19.899 16.7386L15.948 12.4664L15.3163 13.0987L14.6007 12.3831C14.6555 12.3121 14.7103 12.2411 14.7624 12.1686C15.8829 10.6033 16.3757 8.67465 16.1434 6.76366C15.9112 4.85267 14.9708 3.09823 13.508 1.84685C12.0451 0.59546 10.1662 -0.0618994 8.24234 0.0045937C6.31843 0.0710868 4.4894 0.856597 3.11646 2.20599C1.74353 3.55539 0.926503 5.37056 0.826748 7.29303C0.726993 9.21549 1.35176 11.1055 2.57766 12.5897C3.80357 14.074 5.54147 15.0446 7.44816 15.3098C9.35485 15.5751 11.2917 15.1157 12.8762 14.0225C12.9852 13.9472 13.0924 13.8689 13.1976 13.7873L13.9121 14.5018L13.2027 15.2112L17.5618 19.0794C17.7154 19.2331 17.8978 19.3551 18.0986 19.4382C18.2994 19.5214 18.5147 19.5642 18.732 19.5642C18.9494 19.5641 19.1646 19.5212 19.3653 19.438C19.5661 19.3547 19.7485 19.2327 19.902 19.0788C20.0556 18.925 20.1774 18.7425 20.2603 18.5416C20.3433 18.3407 20.3859 18.1254 20.3856 17.9081C20.3853 17.6907 20.3422 17.4756 20.2587 17.2749C20.1752 17.0742 20.053 16.892 19.899 16.7386ZM12.2744 11.4528C11.4015 12.3276 10.2522 12.8725 9.02239 12.9948C7.79262 13.1171 6.55851 12.8091 5.5304 12.1233C4.5023 11.4376 3.74384 10.4165 3.38432 9.23408C3.02479 8.0517 3.08644 6.78122 3.55877 5.63921C4.0311 4.4972 4.88486 3.55434 5.97454 2.97134C7.06421 2.38834 8.32235 2.20129 9.5345 2.44207C10.7466 2.68284 11.8378 3.33655 12.6219 4.29176C13.406 5.24697 13.8346 6.44455 13.8346 7.68038C13.8346 9.09483 13.2735 10.4515 12.2744 11.4528Z" fill="#767676"/>
</svg>
