<svg width="41" height="41" viewBox="0 0 41 41" fill="none" xmlns="http://www.w3.org/2000/svg">
<path d="M38.6258 34.0729L30.9293 25.7507L29.6986 26.9825L28.3047 25.5885C28.4116 25.4502 28.5183 25.3118 28.6197 25.1706C30.8024 22.1213 31.7624 18.3644 31.31 14.6418C30.8576 10.9192 29.0257 7.50163 26.1761 5.06394C23.3266 2.62626 19.6665 1.34573 15.9187 1.47526C12.171 1.60478 8.60807 3.13495 5.93361 5.76356C3.25914 8.39216 1.66759 11.9281 1.47327 15.673C1.27895 19.418 2.49599 23.0996 4.88403 25.9909C7.27207 28.8822 10.6575 30.7729 14.3717 31.2897C18.0859 31.8064 21.8589 30.9115 24.9454 28.7819C25.1578 28.6353 25.3666 28.4827 25.5716 28.3239L26.9634 29.7156L25.5815 31.0975L34.0729 38.6327C34.3722 38.9322 34.7276 39.1697 35.1187 39.3318C35.5099 39.4938 35.9291 39.5772 36.3525 39.5771C36.7759 39.577 37.1951 39.4934 37.5862 39.3312C37.9773 39.169 38.3326 38.9313 38.6317 38.6317C38.9309 38.3321 39.168 37.9764 39.3297 37.5851C39.4913 37.1938 39.5742 36.7744 39.5736 36.351C39.5731 35.9276 39.4891 35.5085 39.3265 35.1176C39.1638 34.7267 38.9257 34.3717 38.6258 34.0729ZM23.7731 23.7762C22.0727 25.4803 19.8338 26.5419 17.4383 26.7801C15.0427 27.0183 12.6387 26.4183 10.6359 25.0824C8.6332 23.7465 7.15574 21.7574 6.45538 19.4542C5.75503 17.1509 5.87513 14.676 6.79521 12.4514C7.7153 10.2268 9.37842 8.39012 11.5011 7.25445C13.6238 6.11877 16.0746 5.75439 18.4359 6.22342C20.7971 6.69246 22.9226 7.96587 24.4501 9.8266C25.9776 11.6873 26.8125 14.0202 26.8125 16.4276C26.8123 19.1829 25.7193 21.8257 23.7731 23.7762Z" fill="#B32B37"/>
</svg>
