<svg width="708" height="417" viewBox="0 0 708 417" fill="none" xmlns="http://www.w3.org/2000/svg">
<mask id="path-1-inside-1_30_1918" fill="white">
<path d="M14.8791 416.101H29.7028L29.9794 413.47C30.4772 408.794 33.6853 404.535 38.8847 401.612C47.0709 397.103 58.0228 397.061 66.0431 401.57C71.4084 404.577 75.225 409.879 75.225 414.305V416.101H86.2875H97.35V414.305C97.35 407.833 104.375 401.028 113.28 398.982C126.998 395.767 141.434 402.948 142.596 413.47L142.872 416.101H153.769H164.665L164.997 413.721C165.495 409.42 167.32 406.623 171.69 403.324C176.945 399.357 180.098 398.397 187.786 398.355C192.93 398.355 193.594 398.481 197.134 399.775C204.49 402.489 209.634 407.917 210.077 413.512L210.298 416.101H221.305H232.313V414.723C232.368 411.007 234.636 406.957 238.508 403.783C243.486 399.65 249.404 397.896 256.761 398.272C267.547 398.815 275.899 404.744 277.724 413.136L278.388 416.101H289.008H299.628L300.015 413.512C300.181 412.009 301.066 409.796 301.951 408.334C307.538 399.316 321.089 395.641 332.705 399.984C339.674 402.572 344.099 407.207 345.316 413.22L345.924 416.101H356.489H367.054L367.662 413.136C368.934 407.082 373.636 402.322 380.993 399.691C384.367 398.481 385.141 398.355 390.23 398.355C395.318 398.355 396.093 398.481 399.467 399.691C406.823 402.322 411.525 407.082 412.797 413.136L413.406 416.101H424.026H434.646L435.199 413.136C436.36 407.249 440.841 402.572 447.755 399.984C457.103 396.518 467.723 398.063 474.803 403.992C477.679 406.414 480.002 410.339 480.444 413.512L480.832 416.101H491.507H502.182L502.514 414.096C503.731 407.249 508.377 402.322 516.287 399.566C522.427 397.437 530.834 397.813 536.808 400.485C539.408 401.612 543.611 404.827 545.271 406.915C546.764 408.835 548.147 412.51 548.147 414.514V416.101H559.154H570.106L570.383 413.428C570.936 408.585 574.808 403.7 580.228 401.069C590.682 396.017 603.847 397.771 611.258 405.245C613.582 407.583 615.628 411.883 615.628 414.472V416.101L626.691 416.101H637.753V414.305C637.753 409.838 641.736 404.326 647.046 401.487C655.066 397.145 665.797 397.145 673.817 401.487C679.127 404.326 683.109 409.838 683.109 414.305V416.101H695.555H708V410.13V404.159L704.073 403.7C696.053 402.739 689.747 399.19 686.262 393.637C684.658 391.048 684.492 390.506 684.492 386.664C684.548 382.865 684.713 382.239 686.262 379.65C689.636 374.264 696.218 370.548 704.073 369.629L708 369.17V361.195V353.22L704.183 352.761C696.108 351.8 690.134 348.543 686.594 343.115C684.603 340.067 684.492 339.775 684.492 335.767C684.492 331.884 684.658 331.299 686.262 328.752C689.747 323.199 695.887 319.65 703.796 318.731L708 318.189V310.214V302.239L704.073 301.738C698.763 301.07 694.504 299.483 690.964 296.811C683.275 291.007 682.058 281.821 688.088 275.183C691.793 271.091 698.32 268.084 704.571 267.625L708 267.333L708 259.107V250.882L704.239 250.673C699.371 250.381 694.78 248.753 690.964 245.872C681.063 238.398 682.28 226.248 693.619 219.817C696.716 218.064 702.413 216.519 705.843 216.519H708V208.21V199.901L704.515 199.734C697.159 199.4 689.692 195.392 686.262 189.88C684.603 187.292 684.492 186.79 684.492 182.699C684.492 178.607 684.603 178.147 686.318 175.475C689.858 170.047 697.048 166.122 704.349 165.705L708 165.454V157.229V149.004L704.46 148.795C696.882 148.336 689.692 144.411 686.262 138.941C684.603 136.352 684.492 135.809 684.492 131.759C684.492 127.709 684.603 127.166 686.262 124.578C689.692 119.108 696.882 115.183 704.46 114.724L708 114.515V106.29V98.0643L704.294 97.8138C696.827 97.271 689.913 93.5132 686.318 88.0435C684.603 85.3713 684.492 84.9537 684.492 80.8201C684.492 76.5613 684.548 76.269 686.594 73.221C689.747 68.3358 695.942 64.6615 702.192 63.91C703.409 63.7847 705.234 63.5759 706.175 63.4507L708 63.2419V55.1417V46.9998H705.843C699.593 46.9998 691.904 43.743 688.143 39.4424C684.99 35.8934 684.05 33.1376 684.326 28.67C684.603 24.3277 686.262 21.4049 690.3 18.0646C694.227 14.8079 698.376 13.3047 705.345 12.5532L708 12.3027V6.24841V0.235904H694.559H681.173L680.51 3.32566C680.123 5.07931 679.127 7.54276 678.242 8.87888C676.195 11.8851 671.383 15.3507 667.235 16.8538C664.358 17.8559 663.418 17.9811 657.942 17.9811C652.466 17.9811 651.526 17.8559 648.65 16.8538C641.736 14.3903 636.647 9.2129 635.43 3.40917L634.711 0.235904H624.202L613.637 0.235904L613.028 3.11689C611.812 9.1294 607.055 14.0981 600.196 16.645C596.767 17.8976 596.213 17.9811 590.461 17.9811C584.708 17.9811 584.155 17.8976 580.726 16.645C573.038 13.764 567.562 7.54276 567.506 1.57202V0.235904L556.665 0.319411L545.768 0.444672L545.547 2.65761C544.939 8.62835 539.85 14.0146 532.217 16.7703C528.124 18.2734 521.099 18.6074 516.508 17.6054C512.138 16.645 507.05 13.9728 504.45 11.1753C502.016 8.62835 500.025 4.41125 500.025 1.86429V0.235904L489.073 0.319411L478.177 0.444672L477.789 3.2004C476.96 9.71394 470.654 15.4342 461.915 17.5636C457.268 18.6909 450.465 18.3152 445.653 16.645C438.462 14.0981 433.429 8.79537 432.71 2.99163L432.378 0.235904L421.537 0.319411L410.695 0.444672L410.308 3.15865C409.755 6.74945 406.823 11.2171 403.449 13.5553C402.067 14.5573 399.301 15.9352 397.254 16.645C393.825 17.8976 393.106 17.9811 387.741 17.9811C382.375 17.9811 381.656 17.8976 378.227 16.645C370.981 14.0563 365.782 8.62835 365.173 2.90813L364.897 0.235904H354H343.103L342.827 2.90813C342.218 8.62835 337.019 14.0981 329.828 16.645C324.74 18.3987 318.213 18.7327 313.013 17.3966C304.44 15.2672 298.024 9.00414 297.471 2.32358L297.305 0.444672L286.353 0.319411L275.456 0.235904V1.78078C275.456 5.78912 272.138 11.1753 267.989 13.8893C266.772 14.7244 264.173 15.977 262.181 16.6868C258.807 17.8976 258.199 17.9811 252.502 17.9811C247.026 17.9811 246.141 17.8559 243.375 16.8538C235.299 13.8475 231.372 9.50518 229.823 1.78078L229.492 0.235904H218.761H207.975V1.86429C207.975 6.58243 203.661 12.3862 197.963 15.2254C193.262 17.6054 189.611 18.3152 183.693 18.1064C179.71 17.9811 178.328 17.7306 175.23 16.5615C168.316 13.9728 163.67 9.1294 162.453 3.11689L161.844 0.235904H151.169H140.494V1.57202C140.438 7.50101 134.907 13.8058 127.219 16.645C123.845 17.8976 123.292 17.9811 117.539 17.9811C112.063 17.9811 111.123 17.8559 108.247 16.8538C101.333 14.3903 96.1884 9.1294 94.9716 3.2004L94.3631 0.235904H83.7984H73.2891L72.57 3.40917C71.3531 9.2129 66.2644 14.3903 59.3503 16.8538C56.4741 17.8559 55.5338 17.9811 50.0578 17.9811C44.5819 17.9811 43.6416 17.8559 40.7653 16.8538C33.6853 14.3486 28.0988 8.54485 27.3244 2.82462L26.9372 0.235904H13.4963H7.62939e-06V6.03964V11.8434L3.0422 12.0104C7.30126 12.2609 13.6622 14.7244 16.6491 17.2713C17.9213 18.3569 19.7466 20.4446 20.6869 21.9477C22.2909 24.4529 22.4016 24.9957 22.4016 29.0458C22.4016 33.931 21.6272 35.7681 17.9766 39.4842C14.6025 42.9497 6.74813 46.1647 1.60407 46.1647H7.62939e-06V54.4737V62.7409L3.09751 62.9914C10.1775 63.5342 17.3128 67.5425 20.6316 72.8035C22.2909 75.3922 22.4016 75.935 22.4016 79.9851C22.4016 84.0351 22.2909 84.5779 20.6316 87.1667C17.3128 92.4276 10.1775 96.4359 3.09751 96.9787L7.62939e-06 97.2292V105.455V113.68L3.09751 113.931C10.1775 114.473 17.3128 118.482 20.6316 123.743C22.2909 126.331 22.4016 126.874 22.4016 130.924C22.4016 134.974 22.2909 135.517 20.6316 138.106C19.6913 139.651 17.8659 141.738 16.5384 142.782C13.6069 145.246 7.4672 147.584 3.15282 147.918L7.62939e-06 148.168V156.436V164.745H1.60407C4.14845 164.745 9.6797 166.206 12.7219 167.667C16.1513 169.338 18.8616 171.759 20.8528 175.016C22.2356 177.229 22.4016 177.939 22.4016 182.072C22.4016 186.289 22.2909 186.874 20.7975 189.17C17.4788 194.306 10.0116 198.398 3.20813 198.857L7.62939e-06 199.108V207.291V215.517L3.65063 215.976C11.2284 216.978 17.4234 220.444 20.6316 225.579C22.2909 228.252 22.4016 228.711 22.4016 233.012C22.4016 237.145 22.2356 237.855 20.9081 240.026C19.0828 242.991 14.7684 246.498 11.0625 248.001C8.90532 248.92 2.48907 250.298 0.387195 250.339C0.165945 250.339 7.62939e-06 253.972 7.62939e-06 258.398L7.62939e-06 266.498L3.70595 266.999C11.3391 268.043 17.4788 271.55 20.6869 276.602C22.2909 279.149 22.4016 279.692 22.4016 283.951C22.4016 288.084 22.2356 288.794 20.9081 290.965C17.7553 296.018 10.9519 299.901 3.42938 300.903L7.62939e-06 301.362V309.379V317.437L3.65063 317.938C13.4963 319.316 21.3506 325.287 22.6781 332.51C24.3375 341.738 15.8747 350.339 3.54001 351.884L7.62939e-06 352.343V360.401V368.46L2.04657 368.71C10.7306 369.712 17.0363 372.969 20.5209 378.314C27.3244 388.71 18.9169 400.861 3.65063 402.865L7.62939e-06 403.324V409.712V416.101H14.8791Z"/>
</mask>
<path d="M14.8791 416.101H29.7028L29.9794 413.47C30.4772 408.794 33.6853 404.535 38.8847 401.612C47.0709 397.103 58.0228 397.061 66.0431 401.57C71.4084 404.577 75.225 409.879 75.225 414.305V416.101H86.2875H97.35V414.305C97.35 407.833 104.375 401.028 113.28 398.982C126.998 395.767 141.434 402.948 142.596 413.47L142.872 416.101H153.769H164.665L164.997 413.721C165.495 409.42 167.32 406.623 171.69 403.324C176.945 399.357 180.098 398.397 187.786 398.355C192.93 398.355 193.594 398.481 197.134 399.775C204.49 402.489 209.634 407.917 210.077 413.512L210.298 416.101H221.305H232.313V414.723C232.368 411.007 234.636 406.957 238.508 403.783C243.486 399.65 249.404 397.896 256.761 398.272C267.547 398.815 275.899 404.744 277.724 413.136L278.388 416.101H289.008H299.628L300.015 413.512C300.181 412.009 301.066 409.796 301.951 408.334C307.538 399.316 321.089 395.641 332.705 399.984C339.674 402.572 344.099 407.207 345.316 413.22L345.924 416.101H356.489H367.054L367.662 413.136C368.934 407.082 373.636 402.322 380.993 399.691C384.367 398.481 385.141 398.355 390.23 398.355C395.318 398.355 396.093 398.481 399.467 399.691C406.823 402.322 411.525 407.082 412.797 413.136L413.406 416.101H424.026H434.646L435.199 413.136C436.36 407.249 440.841 402.572 447.755 399.984C457.103 396.518 467.723 398.063 474.803 403.992C477.679 406.414 480.002 410.339 480.444 413.512L480.832 416.101H491.507H502.182L502.514 414.096C503.731 407.249 508.377 402.322 516.287 399.566C522.427 397.437 530.834 397.813 536.808 400.485C539.408 401.612 543.611 404.827 545.271 406.915C546.764 408.835 548.147 412.51 548.147 414.514V416.101H559.154H570.106L570.383 413.428C570.936 408.585 574.808 403.7 580.228 401.069C590.682 396.017 603.847 397.771 611.258 405.245C613.582 407.583 615.628 411.883 615.628 414.472V416.101L626.691 416.101H637.753V414.305C637.753 409.838 641.736 404.326 647.046 401.487C655.066 397.145 665.797 397.145 673.817 401.487C679.127 404.326 683.109 409.838 683.109 414.305V416.101H695.555H708V410.13V404.159L704.073 403.7C696.053 402.739 689.747 399.19 686.262 393.637C684.658 391.048 684.492 390.506 684.492 386.664C684.548 382.865 684.713 382.239 686.262 379.65C689.636 374.264 696.218 370.548 704.073 369.629L708 369.17V361.195V353.22L704.183 352.761C696.108 351.8 690.134 348.543 686.594 343.115C684.603 340.067 684.492 339.775 684.492 335.767C684.492 331.884 684.658 331.299 686.262 328.752C689.747 323.199 695.887 319.65 703.796 318.731L708 318.189V310.214V302.239L704.073 301.738C698.763 301.07 694.504 299.483 690.964 296.811C683.275 291.007 682.058 281.821 688.088 275.183C691.793 271.091 698.32 268.084 704.571 267.625L708 267.333L708 259.107V250.882L704.239 250.673C699.371 250.381 694.78 248.753 690.964 245.872C681.063 238.398 682.28 226.248 693.619 219.817C696.716 218.064 702.413 216.519 705.843 216.519H708V208.21V199.901L704.515 199.734C697.159 199.4 689.692 195.392 686.262 189.88C684.603 187.292 684.492 186.79 684.492 182.699C684.492 178.607 684.603 178.147 686.318 175.475C689.858 170.047 697.048 166.122 704.349 165.705L708 165.454V157.229V149.004L704.46 148.795C696.882 148.336 689.692 144.411 686.262 138.941C684.603 136.352 684.492 135.809 684.492 131.759C684.492 127.709 684.603 127.166 686.262 124.578C689.692 119.108 696.882 115.183 704.46 114.724L708 114.515V106.29V98.0643L704.294 97.8138C696.827 97.271 689.913 93.5132 686.318 88.0435C684.603 85.3713 684.492 84.9537 684.492 80.8201C684.492 76.5613 684.548 76.269 686.594 73.221C689.747 68.3358 695.942 64.6615 702.192 63.91C703.409 63.7847 705.234 63.5759 706.175 63.4507L708 63.2419V55.1417V46.9998H705.843C699.593 46.9998 691.904 43.743 688.143 39.4424C684.99 35.8934 684.05 33.1376 684.326 28.67C684.603 24.3277 686.262 21.4049 690.3 18.0646C694.227 14.8079 698.376 13.3047 705.345 12.5532L708 12.3027V6.24841V0.235904H694.559H681.173L680.51 3.32566C680.123 5.07931 679.127 7.54276 678.242 8.87888C676.195 11.8851 671.383 15.3507 667.235 16.8538C664.358 17.8559 663.418 17.9811 657.942 17.9811C652.466 17.9811 651.526 17.8559 648.65 16.8538C641.736 14.3903 636.647 9.2129 635.43 3.40917L634.711 0.235904H624.202L613.637 0.235904L613.028 3.11689C611.812 9.1294 607.055 14.0981 600.196 16.645C596.767 17.8976 596.213 17.9811 590.461 17.9811C584.708 17.9811 584.155 17.8976 580.726 16.645C573.038 13.764 567.562 7.54276 567.506 1.57202V0.235904L556.665 0.319411L545.768 0.444672L545.547 2.65761C544.939 8.62835 539.85 14.0146 532.217 16.7703C528.124 18.2734 521.099 18.6074 516.508 17.6054C512.138 16.645 507.05 13.9728 504.45 11.1753C502.016 8.62835 500.025 4.41125 500.025 1.86429V0.235904L489.073 0.319411L478.177 0.444672L477.789 3.2004C476.96 9.71394 470.654 15.4342 461.915 17.5636C457.268 18.6909 450.465 18.3152 445.653 16.645C438.462 14.0981 433.429 8.79537 432.71 2.99163L432.378 0.235904L421.537 0.319411L410.695 0.444672L410.308 3.15865C409.755 6.74945 406.823 11.2171 403.449 13.5553C402.067 14.5573 399.301 15.9352 397.254 16.645C393.825 17.8976 393.106 17.9811 387.741 17.9811C382.375 17.9811 381.656 17.8976 378.227 16.645C370.981 14.0563 365.782 8.62835 365.173 2.90813L364.897 0.235904H354H343.103L342.827 2.90813C342.218 8.62835 337.019 14.0981 329.828 16.645C324.74 18.3987 318.213 18.7327 313.013 17.3966C304.44 15.2672 298.024 9.00414 297.471 2.32358L297.305 0.444672L286.353 0.319411L275.456 0.235904V1.78078C275.456 5.78912 272.138 11.1753 267.989 13.8893C266.772 14.7244 264.173 15.977 262.181 16.6868C258.807 17.8976 258.199 17.9811 252.502 17.9811C247.026 17.9811 246.141 17.8559 243.375 16.8538C235.299 13.8475 231.372 9.50518 229.823 1.78078L229.492 0.235904H218.761H207.975V1.86429C207.975 6.58243 203.661 12.3862 197.963 15.2254C193.262 17.6054 189.611 18.3152 183.693 18.1064C179.71 17.9811 178.328 17.7306 175.23 16.5615C168.316 13.9728 163.67 9.1294 162.453 3.11689L161.844 0.235904H151.169H140.494V1.57202C140.438 7.50101 134.907 13.8058 127.219 16.645C123.845 17.8976 123.292 17.9811 117.539 17.9811C112.063 17.9811 111.123 17.8559 108.247 16.8538C101.333 14.3903 96.1884 9.1294 94.9716 3.2004L94.3631 0.235904H83.7984H73.2891L72.57 3.40917C71.3531 9.2129 66.2644 14.3903 59.3503 16.8538C56.4741 17.8559 55.5338 17.9811 50.0578 17.9811C44.5819 17.9811 43.6416 17.8559 40.7653 16.8538C33.6853 14.3486 28.0988 8.54485 27.3244 2.82462L26.9372 0.235904H13.4963H7.62939e-06V6.03964V11.8434L3.0422 12.0104C7.30126 12.2609 13.6622 14.7244 16.6491 17.2713C17.9213 18.3569 19.7466 20.4446 20.6869 21.9477C22.2909 24.4529 22.4016 24.9957 22.4016 29.0458C22.4016 33.931 21.6272 35.7681 17.9766 39.4842C14.6025 42.9497 6.74813 46.1647 1.60407 46.1647H7.62939e-06V54.4737V62.7409L3.09751 62.9914C10.1775 63.5342 17.3128 67.5425 20.6316 72.8035C22.2909 75.3922 22.4016 75.935 22.4016 79.9851C22.4016 84.0351 22.2909 84.5779 20.6316 87.1667C17.3128 92.4276 10.1775 96.4359 3.09751 96.9787L7.62939e-06 97.2292V105.455V113.68L3.09751 113.931C10.1775 114.473 17.3128 118.482 20.6316 123.743C22.2909 126.331 22.4016 126.874 22.4016 130.924C22.4016 134.974 22.2909 135.517 20.6316 138.106C19.6913 139.651 17.8659 141.738 16.5384 142.782C13.6069 145.246 7.4672 147.584 3.15282 147.918L7.62939e-06 148.168V156.436V164.745H1.60407C4.14845 164.745 9.6797 166.206 12.7219 167.667C16.1513 169.338 18.8616 171.759 20.8528 175.016C22.2356 177.229 22.4016 177.939 22.4016 182.072C22.4016 186.289 22.2909 186.874 20.7975 189.17C17.4788 194.306 10.0116 198.398 3.20813 198.857L7.62939e-06 199.108V207.291V215.517L3.65063 215.976C11.2284 216.978 17.4234 220.444 20.6316 225.579C22.2909 228.252 22.4016 228.711 22.4016 233.012C22.4016 237.145 22.2356 237.855 20.9081 240.026C19.0828 242.991 14.7684 246.498 11.0625 248.001C8.90532 248.92 2.48907 250.298 0.387195 250.339C0.165945 250.339 7.62939e-06 253.972 7.62939e-06 258.398L7.62939e-06 266.498L3.70595 266.999C11.3391 268.043 17.4788 271.55 20.6869 276.602C22.2909 279.149 22.4016 279.692 22.4016 283.951C22.4016 288.084 22.2356 288.794 20.9081 290.965C17.7553 296.018 10.9519 299.901 3.42938 300.903L7.62939e-06 301.362V309.379V317.437L3.65063 317.938C13.4963 319.316 21.3506 325.287 22.6781 332.51C24.3375 341.738 15.8747 350.339 3.54001 351.884L7.62939e-06 352.343V360.401V368.46L2.04657 368.71C10.7306 369.712 17.0363 372.969 20.5209 378.314C27.3244 388.71 18.9169 400.861 3.65063 402.865L7.62939e-06 403.324V409.712V416.101H14.8791Z" fill="#FBF9F6" stroke="#A4968E" stroke-width="2.32895" mask="url(#path-1-inside-1_30_1918)"/>
</svg>
