<svg width="19" height="18" viewBox="0 0 19 18" fill="none" xmlns="http://www.w3.org/2000/svg">
<path fill-rule="evenodd" clip-rule="evenodd" d="M2.31641 9C2.31641 4.85786 5.67427 1.5 9.81641 1.5C13.9585 1.5 17.3164 4.85786 17.3164 9C17.3164 13.1421 13.9585 16.5 9.81641 16.5C5.67427 16.5 2.31641 13.1421 2.31641 9ZM9.81633 4.5C8.15948 4.5 6.81634 5.84314 6.81634 7.5C6.81634 9.15682 8.15948 10.5 9.81633 10.5C11.4732 10.5 12.8163 9.15682 12.8163 7.5C12.8163 5.84314 11.4732 4.5 9.81633 4.5ZM13.65 11.998C14.2184 12.364 14.1906 13.1618 13.6731 13.5966C12.6302 14.4724 11.285 15 9.81648 15C8.35773 15 7.02052 14.4794 5.98058 13.6138C5.45839 13.1792 5.43072 12.3774 6.00154 12.009C6.17924 11.8943 6.37275 11.7938 6.58277 11.7073C7.42778 11.3589 8.50706 11.25 9.81641 11.25C11.1324 11.25 12.2178 11.3519 13.065 11.6965C13.2766 11.7826 13.4715 11.8831 13.65 11.998Z" fill="#0A75B1"/>
</svg>
