<svg width="36" height="36" viewBox="0 0 36 36" fill="none" xmlns="http://www.w3.org/2000/svg">
<path d="M18 25.125C17.7028 25.1211 17.4189 25.0014 17.2087 24.7913C16.9986 24.5811 16.8789 24.2971 16.875 24V16.5C16.875 16.2017 16.9935 15.9154 17.2045 15.7045C17.4154 15.4935 17.7017 15.375 18 15.375C18.2983 15.375 18.5846 15.4935 18.7955 15.7045C19.0065 15.9154 19.125 16.2017 19.125 16.5V24C19.1211 24.2971 19.0014 24.5811 18.7913 24.7913C18.5811 25.0014 18.2972 25.1211 18 25.125Z" fill="#161515" fill-opacity="0.78"/>
<path d="M18 13.875C17.7028 13.8711 17.4189 13.7513 17.2087 13.5412C16.9986 13.3311 16.8789 13.0472 16.875 12.75V12C16.875 11.7016 16.9935 11.4155 17.2045 11.2045C17.4154 10.9935 17.7017 10.875 18 10.875C18.2983 10.875 18.5846 10.9935 18.7955 11.2045C19.0065 11.4155 19.125 11.7016 19.125 12V12.75C19.1211 13.0472 19.0014 13.3311 18.7913 13.5412C18.5811 13.7513 18.2972 13.8711 18 13.875Z" fill="#161515" fill-opacity="0.78"/>
<path d="M18 31.5C15.33 31.5 12.7199 30.7083 10.4998 29.2248C8.27974 27.7414 6.54942 25.633 5.52763 23.1663C4.50585 20.6994 4.2385 17.985 4.75941 15.3663C5.2803 12.7475 6.56605 10.3421 8.45406 8.45406C10.3421 6.56605 12.7475 5.2803 15.3663 4.75941C17.985 4.2385 20.6994 4.50585 23.1663 5.52763C25.633 6.54942 27.7414 8.27974 29.2248 10.4998C30.7083 12.7199 31.5 15.33 31.5 18C31.5 21.5805 30.0777 25.0141 27.546 27.546C25.0141 30.0777 21.5805 31.5 18 31.5ZM18 6.75C15.7749 6.75 13.5999 7.4098 11.7498 8.64597C9.89979 9.88213 8.45784 11.6391 7.60636 13.6948C6.75487 15.7504 6.53209 18.0124 6.96616 20.1948C7.40025 22.377 8.47171 24.3816 10.045 25.955C11.6184 27.5283 13.623 28.5997 15.8052 29.0338C17.9875 29.4679 20.2495 29.2452 22.3051 28.3936C24.3609 27.5421 26.1178 26.1001 27.354 24.2502C28.5901 22.4001 29.25 20.2251 29.25 18C29.25 15.0163 28.0647 12.1548 25.955 10.045C23.8452 7.93527 20.9836 6.75 18 6.75Z" fill="#161515" fill-opacity="0.78"/>
</svg>
